<svg width="244" height="81" viewBox="0 0 244 81" fill="none" xmlns="http://www.w3.org/2000/svg">
<path d="M52.3684 9.168C51.9724 9.24 51.5044 9.384 51.1804 9.636C48.6604 11.58 46.5364 13.848 45.5644 16.98C45.4564 17.304 45.2404 17.628 45.0964 17.916C44.9884 17.916 44.8804 17.88 44.7724 17.844C44.7724 16.584 44.7724 15.36 44.8084 14.1C44.8084 12.948 44.4124 11.976 43.8364 11.076C43.1884 10.104 42.0364 9.78 40.7764 10.14C40.8484 10.464 40.8844 10.824 40.9924 11.148C41.7124 13.992 42.1444 16.872 42.1084 19.788C42.1084 22.416 42.1444 25.044 42.0724 27.672C42.0364 29.22 41.8564 30.768 41.6764 32.28C41.6044 33.288 41.6764 33.396 42.6484 33.72L43.3684 33.972C44.2324 34.26 44.5924 33.972 44.6284 33.108C44.6284 31.884 44.6284 30.696 44.7004 29.472L45.0604 24.216C45.1684 22.128 45.9964 20.22 46.5364 18.276C46.7524 17.484 47.0404 16.692 47.3644 15.936C48.0124 14.46 48.9844 13.236 49.9924 12.012C50.4604 11.472 50.9644 10.968 51.6844 10.752C51.9004 11.688 51.9364 12.156 51.5404 13.308C50.8924 15.18 50.1724 17.016 49.4524 18.852C48.6964 20.868 47.9404 22.884 46.3564 24.756C46.8244 25.08 47.1484 25.368 47.5444 25.512C48.0844 25.728 48.6964 25.872 49.2724 26.052C50.5324 26.376 50.9644 27.528 50.2444 28.608L49.5964 29.472C48.4084 30.84 47.2564 32.208 46.4644 33.828C46.2124 34.332 46.2844 34.656 46.6804 34.944C47.6524 35.736 48.7324 35.592 49.4524 34.548C49.7764 34.152 49.9924 33.684 50.2804 33.288C50.4604 32.964 50.7124 32.712 50.9644 32.46L53.6644 29.256C53.7364 29.184 53.7724 29.076 53.7724 28.968C53.9884 27.42 52.9084 25.692 51.3964 25.152C51.0724 25.044 50.7484 25.008 50.4604 24.9L49.7044 24.648C49.8124 24.324 49.8844 24.036 49.9924 23.784L51.8644 19.896C52.2244 19.068 52.5124 18.204 52.9444 17.448C53.6644 16.188 54.0244 14.784 54.3844 13.38C54.6004 12.444 54.6724 11.472 54.4204 10.5C54.1324 9.456 53.4484 8.952 52.3684 9.168ZM61.8614 29.328L62.2574 27.6C62.6174 26.016 63.1934 25.584 63.2294 24.612L62.5454 21.696C61.3574 21.516 60.2774 21.336 59.1614 21.12C59.0534 20.4 59.4494 19.788 59.8814 19.32C60.3494 18.852 60.9974 18.564 61.5734 18.168C61.5734 18.096 61.5374 18.024 61.5374 17.952C60.6374 17.772 59.7374 17.556 58.8734 17.34C58.0814 17.16 57.5414 17.34 57.2174 18.024L56.8934 18.564C55.9934 20.544 55.3094 22.632 54.9494 24.828L54.7334 27.132C54.7334 27.348 54.7694 27.564 54.7694 27.78V31.2C54.8054 31.92 55.1294 32.604 55.7414 33.036C56.6774 33.72 57.7214 34.08 58.8014 34.044C60.0974 34.008 60.6374 33.036 60.9974 32.064C61.2134 31.56 61.3574 31.056 61.5014 30.516C61.5374 30.552 61.5734 30.552 61.6094 30.552C62.4374 30.84 62.7974 30.588 63.5534 29.94C64.3454 29.328 64.4894 28.644 64.5974 28.14C63.3014 28.68 62.7974 29.508 62.1494 29.472C62.0414 29.472 61.9334 29.4 61.8614 29.328ZM59.0534 32.208C58.9814 32.424 58.8374 32.64 58.6574 32.784C58.4774 32.928 58.1534 33.108 57.9734 33.036C57.7574 32.964 57.5054 32.604 57.4694 32.352C57.3254 31.632 57.2174 30.912 57.2534 30.228C57.3614 27.42 57.7574 24.684 58.6214 22.128C58.6574 21.984 58.8014 21.876 58.8734 21.732C58.9814 21.768 59.0534 21.768 59.1614 21.768C59.1614 22.704 59.5214 23.424 60.0614 24.108C59.8094 25.764 59.9174 27.492 60.1694 28.32L60.2774 28.788C59.9174 29.94 59.5214 31.092 59.0534 32.208ZM77.5265 28.5C77.0945 28.212 76.9145 27.132 76.9865 26.736C77.2025 25.728 77.4905 24.72 77.8145 23.784C77.9945 23.208 77.9225 22.704 77.5625 22.236C77.2385 21.768 76.6985 21.912 76.2305 21.948C75.8345 21.984 75.5465 22.164 75.4745 22.56L75.2945 23.784C75.1865 24.612 75.2585 25.512 74.9345 26.232C73.8185 28.716 73.9625 28.284 73.3505 30.984L73.0985 31.56C72.9905 31.56 72.9185 31.524 72.8105 31.524C72.4505 28.5 72.4865 25.512 72.7385 22.524C71.8745 21.912 71.2625 21.912 70.9385 22.596C69.6425 25.404 68.3825 28.212 67.1225 31.02L66.3665 32.532C65.8265 32.136 65.9345 31.812 66.0065 31.452C66.2225 29.832 66.4385 28.212 66.7265 26.628C66.9785 25.296 66.6905 23.82 67.5905 22.704C67.6625 22.668 67.5905 22.524 67.5905 22.416C67.2665 21.408 67.5185 20.652 68.2745 20.04C68.4545 19.896 68.5265 19.608 68.7065 19.248C68.0945 18.996 67.6265 18.744 67.1225 18.636C65.1425 18.096 64.9625 18.168 64.4945 20.004C64.3145 20.868 64.0265 23.424 63.8465 24.324V24.432C63.7385 25.944 63.6305 28.932 63.5585 30.408C63.5225 30.84 63.4865 31.38 63.7025 31.74C64.2065 32.604 64.9625 33.36 65.9345 33.756C67.1585 34.26 67.8425 34.044 68.2745 32.892C68.7065 31.668 69.0305 30.408 69.4265 29.148C69.7145 28.284 70.0745 27.384 70.3985 26.52C70.4705 26.52 70.5425 26.556 70.6505 26.556C70.7225 27.132 70.8665 27.744 70.9025 28.32L70.9745 30.984C71.0105 31.632 71.1905 32.244 71.7665 32.748C73.4225 34.08 75.4025 33.576 75.8345 31.704C76.1225 30.336 76.1585 29.364 76.3025 28.86C76.3025 28.86 77.5265 30.012 77.7785 30.012C78.0305 30.012 79.1105 29.4 79.3625 28.212C78.3545 28.968 77.8505 28.824 77.5265 28.5ZM87.1801 9.924C86.1001 9.564 84.9841 9.672 83.8681 9.78C83.2561 9.816 82.8601 10.176 82.5721 10.716C81.6721 12.264 81.0241 13.884 80.5561 15.54C80.0161 17.448 79.6201 19.428 79.1881 21.372C78.6121 24.036 78.1801 26.736 78.3241 29.508C78.3601 30.012 78.2161 30.552 78.3241 31.02C78.5761 32.388 78.6121 34.08 79.4041 35.232C80.0881 36.24 81.0241 36.564 82.1401 36.456C83.3281 36.312 84.9841 34.404 85.3081 33.252C85.9561 32.028 86.8201 30.84 87.6841 28.104C86.2441 29.04 85.7761 30.192 84.7321 31.848C84.6601 32.028 82.1041 35.124 81.9601 35.304L81.6001 35.124C81.5281 35.052 81.4201 34.98 81.4201 34.908C81.4201 33.828 81.7081 30.588 81.8521 29.22C81.9241 28.608 81.9241 27.996 81.9241 27.384C81.9241 26.736 82.3561 26.304 83.0041 25.224C84.3721 23.028 85.0201 21.156 86.0281 18.096C86.1721 17.592 86.4241 17.088 86.5321 16.548L87.7921 10.932C87.9361 10.212 87.9001 10.14 87.1801 9.924ZM86.1001 13.236C85.3441 17.232 84.2641 21.156 82.3201 24.756L82.1401 25.044C82.0681 25.044 82.0321 25.008 81.9601 25.008C82.0321 24.252 82.0681 23.532 82.1761 22.812C82.3201 21.732 82.4641 20.688 82.6801 19.608C82.8241 18.888 82.9681 18.132 83.2201 17.448C83.6881 16.152 84.2281 14.892 84.6961 13.596C84.8761 13.092 85.0201 12.624 85.1641 12.12C85.2721 11.724 85.4161 11.292 86.0281 11.328C86.3881 11.94 86.2081 12.624 86.1001 13.236ZM89.7839 31.56C89.6039 30.3 89.9999 27.672 89.9279 26.412C89.8919 25.116 89.7839 23.82 90.4319 22.668C89.7119 22.092 89.0279 22.308 88.3439 22.38C87.8039 22.452 87.8039 22.992 87.5519 23.316C87.0479 25.08 87.0479 25.584 87.1199 26.988C87.2639 27.384 87.1199 28.572 87.1199 28.68C87.1919 29.328 87.1559 30.444 87.2279 31.092C87.2999 31.848 87.5519 32.676 88.2719 32.856C88.5599 33 89.4959 33.072 89.8199 33.072C90.1439 33.036 92.0159 29.832 92.6999 28.176C91.7999 28.608 90.7199 30.336 89.7839 31.56ZM90.1079 20.148C90.2519 19.572 90.3239 18.996 90.5399 18.456C90.9719 17.34 91.4039 16.188 91.9079 15.108C92.2319 13.92 91.4399 12.444 90.3239 12.624C90.0359 12.66 89.6399 12.948 89.5319 13.2C88.7759 15.036 88.0919 16.908 88.3079 18.924C88.4159 19.968 89.0999 20.436 90.1079 20.148ZM101.404 31.488C100.684 30.804 100.9 30.156 101.116 29.616C101.728 27.924 101.872 26.088 102.268 24.36C102.448 23.568 102.34 22.92 101.836 22.236C101.368 21.66 101.044 21.372 100.36 21.516C99.9283 21.624 99.4963 21.84 99.1723 22.128C97.6243 23.424 96.2563 24.9 95.1403 26.556C94.9963 26.772 94.7803 26.88 94.6003 27.06L94.4203 26.916C94.5283 26.34 94.6723 25.8 94.7443 25.224C94.8163 24.576 94.6363 23.82 94.8883 23.244L94.8163 21.84C94.7083 21.012 93.0523 20.94 92.8363 21.12C92.6203 21.336 92.4763 22.38 92.5123 22.812C92.4763 23.136 92.5123 23.532 92.2963 23.712C92.2963 23.712 91.5763 29.22 91.6123 30.804C91.6483 31.992 92.7283 32.82 94.0243 32.784C94.2403 32.388 94.4923 32.028 94.6723 31.632C95.8963 28.716 97.7323 26.232 99.4243 23.64C99.6043 23.388 99.8923 23.208 100.288 22.848C100.504 24 100.252 24.828 99.9283 25.584L98.9563 27.636C98.3443 28.752 98.5963 29.94 98.8483 31.164C98.8843 31.452 99.1003 31.812 99.3523 31.992C100.612 33.036 101.836 33.468 103.168 32.28C103.888 31.452 104.536 30.084 104.428 28.14C103.6 29.22 102.34 30.768 101.404 31.488ZM113.47 22.416C112.57 22.056 111.742 21.984 110.878 22.2C109.978 22.452 109.87 22.488 109.798 23.388C109.726 24.144 109.834 24.936 109.618 25.656C109.078 27.744 108.43 29.796 107.818 31.884C107.746 32.064 107.602 32.208 107.494 32.352H107.278C107.17 31.56 106.99 30.804 107.026 30.048C107.026 28.896 107.17 27.708 107.242 26.52C107.386 25.008 107.998 23.604 108.574 22.2C108.826 21.552 109.258 21.156 110.086 21.408C110.626 21.552 111.058 21.264 111.202 20.616C110.986 20.544 110.842 20.436 110.662 20.4C109.402 20.04 108.178 20.328 106.918 20.472C106.054 20.616 105.586 21.12 105.37 21.876C105.01 23.1 104.65 24.288 104.326 25.512C103.966 27.492 103.786 28.752 103.966 30.12L103.93 30.084C104.002 30.3 104.002 30.516 104.074 30.66L104.758 33.36C105.154 34.944 107.17 34.8 108.07 33.936C108.25 33.756 110.086 26.916 110.41 26.556C110.446 27.276 109.87 33.252 109.87 33.72C109.69 36.096 109.042 39.408 108.25 41.676C107.89 42.792 107.134 43.584 105.91 43.8C105.334 43.908 105.046 43.728 104.938 43.26C104.866 43.008 104.83 42.756 104.83 42.504C105.082 40.38 105.658 38.436 107.458 37.068C107.782 36.816 108.106 36.528 108.07 36.024C106.666 36.276 105.334 37.284 104.506 38.508C103.174 40.524 103.21 42.648 103.678 44.88C103.822 45.6 104.074 45.744 104.83 45.708C106.09 45.6 107.314 45.276 108.502 44.808C109.222 44.52 109.798 44.052 110.23 43.44C111.598 41.532 112.354 39.372 112.642 37.068L112.966 35.124C113.074 33.864 113.326 31.704 113.182 30.444C113.038 29.256 113.254 28.032 113.326 26.808C113.362 25.332 113.398 23.892 113.47 22.416ZM103.93 29.976L103.894 29.868C103.894 29.904 103.894 29.94 103.93 29.976ZM134.564 9.168C134.168 9.24 133.7 9.384 133.376 9.636C130.856 11.58 128.732 13.848 127.76 16.98C127.652 17.304 127.436 17.628 127.292 17.916C127.184 17.916 127.076 17.88 126.968 17.844C126.968 16.584 126.968 15.36 127.004 14.1C127.004 12.948 126.608 11.976 126.032 11.076C125.384 10.104 124.232 9.78 122.972 10.14C123.044 10.464 123.08 10.824 123.188 11.148C123.908 13.992 124.34 16.872 124.304 19.788C124.304 22.416 124.34 25.044 124.268 27.672C124.232 29.22 124.052 30.768 123.872 32.28C123.8 33.288 123.872 33.396 124.844 33.72L125.564 33.972C126.428 34.26 126.788 33.972 126.824 33.108C126.824 31.884 126.824 30.696 126.896 29.472L127.256 24.216C127.364 22.128 128.192 20.22 128.732 18.276C128.948 17.484 129.236 16.692 129.56 15.936C130.208 14.46 131.18 13.236 132.188 12.012C132.656 11.472 133.16 10.968 133.88 10.752C134.096 11.688 134.132 12.156 133.736 13.308C133.088 15.18 132.368 17.016 131.648 18.852C130.892 20.868 130.136 22.884 128.552 24.756C129.02 25.08 129.344 25.368 129.74 25.512C130.28 25.728 130.892 25.872 131.468 26.052C132.728 26.376 133.16 27.528 132.44 28.608L131.792 29.472C130.604 30.84 129.452 32.208 128.66 33.828C128.408 34.332 128.48 34.656 128.876 34.944C129.848 35.736 130.928 35.592 131.648 34.548C131.972 34.152 132.188 33.684 132.476 33.288C132.656 32.964 132.908 32.712 133.16 32.46L135.86 29.256C135.932 29.184 135.968 29.076 135.968 28.968C136.184 27.42 135.104 25.692 133.592 25.152C133.268 25.044 132.944 25.008 132.656 24.9L131.9 24.648C132.008 24.324 132.08 24.036 132.188 23.784L134.06 19.896C134.42 19.068 134.708 18.204 135.14 17.448C135.86 16.188 136.22 14.784 136.58 13.38C136.796 12.444 136.868 11.472 136.616 10.5C136.328 9.456 135.644 8.952 134.564 9.168ZM148.053 30.984C147.981 31.056 147.909 31.092 147.837 31.128L147.909 30.876C147.801 30.12 147.621 29.364 147.585 28.644C147.585 27.132 147.621 25.62 147.693 24.108C147.729 23.568 147.981 23.028 148.161 22.488L148.629 21.3C147.621 20.832 146.721 21.228 145.821 21.12C145.605 21.516 145.281 21.912 145.245 22.308C145.173 23.388 144.669 24.288 144.237 25.224C143.373 27.168 142.581 29.148 141.717 31.092C141.501 31.56 141.321 32.1 140.817 32.388C140.529 31.596 140.529 30.876 140.781 30.156C140.889 29.832 140.925 29.508 140.961 29.184C141.105 28.356 141.213 27.492 141.393 26.628C141.897 24.504 142.581 22.416 142.905 20.256C142.941 20.04 143.121 19.824 143.229 19.608L143.553 18.996C142.545 18.456 142.185 18.384 140.997 18.456C139.701 18.528 139.701 18.528 139.305 19.824C138.873 21.156 138.477 22.524 138.081 23.856L137.181 26.772C137.181 27.096 137.181 27.384 137.145 27.636C137.073 28.86 136.965 30.084 136.929 31.308C136.893 32.064 137.109 32.712 137.685 33.252C139.485 34.872 142.617 34.044 143.193 32.028C143.409 31.308 143.733 30.624 144.021 29.904C144.129 29.616 144.273 29.364 144.417 29.112C144.669 29.616 144.705 30.12 144.741 30.624C144.849 31.632 145.353 32.28 146.325 32.568C147.405 32.892 148.449 32.892 149.205 31.956C149.781 30.984 150.105 30.48 150.933 28.176C150.105 28.86 148.593 30.408 148.053 30.984ZM159.154 19.032C158.758 19.14 158.398 19.428 158.074 19.68C156.85 20.688 156.202 22.128 155.374 23.46L153.898 25.872C153.502 23.208 154.078 20.688 154.798 18.204C154.366 17.772 154.042 17.628 153.25 17.484C152.278 17.34 152.062 17.484 151.846 18.384C151.522 19.896 151.054 21.408 151.018 22.956C150.658 25.224 150.586 26.124 150.298 28.212L150.154 29.472C150.046 30.228 149.866 30.984 149.902 31.74C149.974 33.648 151.954 34.548 153.61 33.504C153.214 33 153.25 32.424 153.466 31.884C153.934 30.588 154.438 29.328 154.798 27.996C155.482 25.62 156.562 23.424 157.894 21.372C158.074 21.048 158.29 20.724 158.83 20.58L158.506 21.624C158.11 22.776 157.678 23.928 157.318 25.08C156.922 26.34 157.21 26.808 158.434 27.204C158.686 27.312 158.974 27.312 159.262 27.312V26.556C159.406 26.16 159.946 25.26 160.09 24.9C160.486 23.748 160.918 22.596 161.35 21.48C161.638 20.832 161.638 20.148 161.206 19.644C160.702 18.996 159.946 18.78 159.154 19.032ZM170.563 22.416C169.663 22.056 168.835 21.984 167.971 22.2C167.071 22.452 166.963 22.488 166.891 23.388C166.819 24.144 166.927 24.936 166.711 25.656C166.171 27.744 165.523 29.796 164.911 31.884C164.839 32.064 164.695 32.208 164.587 32.352H164.371C164.263 31.56 164.083 30.804 164.119 30.048C164.119 28.896 164.263 27.708 164.335 26.52C164.479 25.008 165.091 23.604 165.667 22.2C165.919 21.552 166.351 21.156 167.179 21.408C167.719 21.552 168.151 21.264 168.295 20.616C168.079 20.544 167.935 20.436 167.755 20.4C166.495 20.04 165.271 20.328 164.011 20.472C163.147 20.616 162.679 21.12 162.463 21.876C162.103 23.1 161.743 24.288 161.419 25.512C161.059 27.492 160.879 28.752 161.059 30.12L161.023 30.084C161.095 30.3 161.095 30.516 161.167 30.66L161.851 33.36C162.247 34.944 164.263 34.8 165.163 33.936C165.343 33.756 167.179 26.916 167.503 26.556C167.539 27.276 166.963 33.252 166.963 33.72C166.783 36.096 166.135 39.408 165.343 41.676C164.983 42.792 164.227 43.584 163.003 43.8C162.427 43.908 162.139 43.728 162.031 43.26C161.959 43.008 161.923 42.756 161.923 42.504C162.175 40.38 162.751 38.436 164.551 37.068C164.875 36.816 165.199 36.528 165.163 36.024C163.759 36.276 162.427 37.284 161.599 38.508C160.267 40.524 160.303 42.648 160.771 44.88C160.915 45.6 161.167 45.744 161.923 45.708C163.183 45.6 164.407 45.276 165.595 44.808C166.315 44.52 166.891 44.052 167.323 43.44C168.691 41.532 169.447 39.372 169.735 37.068L170.059 35.124C170.167 33.864 170.419 31.704 170.275 30.444C170.131 29.256 170.347 28.032 170.419 26.808C170.455 25.332 170.491 23.892 170.563 22.416ZM161.023 29.976L160.987 29.868C160.987 29.904 160.987 29.94 161.023 29.976ZM181.303 19.968C180.655 19.788 180.115 19.536 179.611 19.212C179.431 19.104 179.179 19.032 178.927 18.996C178.495 18.924 178.063 18.924 177.667 18.852C176.875 18.708 176.227 18.852 175.759 19.356C175.543 19.608 175.255 19.86 175.075 20.148C174.751 20.652 174.427 21.192 174.175 21.732C173.563 23.172 172.807 24.612 172.411 26.088C171.871 27.888 172.015 28.644 172.123 29.652C172.195 29.976 172.231 30.192 172.303 30.372C172.879 31.812 174.355 33.072 175.975 33.504C177.091 33.792 177.847 33.864 178.675 33.288C180.079 32.28 181.195 31.524 181.951 30.264C182.419 29.436 182.635 28.068 182.635 28.068C181.879 28.86 180.151 29.976 178.603 31.344C178.207 31.668 177.415 32.208 177.055 32.496C176.191 31.992 175.471 30.876 175.471 30.048C175.471 29.508 175.507 28.932 175.795 28.464C176.227 27.78 176.875 27.168 177.487 26.592C179.215 25.044 180.619 23.388 181.663 21.552C181.807 21.336 181.879 21.12 181.951 20.868C182.059 20.472 181.807 20.112 181.303 19.968ZM176.479 24.72C176.407 24.612 176.299 24.504 176.299 24.432C176.587 23.1 177.199 21.84 178.243 20.724C178.711 20.22 178.783 20.22 179.719 20.508C179.287 21.552 178.135 23.064 176.479 24.72ZM190.83 19.032C190.434 19.14 190.074 19.428 189.75 19.68C188.526 20.688 187.878 22.128 187.05 23.46L185.574 25.872C185.178 23.208 185.754 20.688 186.474 18.204C186.042 17.772 185.718 17.628 184.926 17.484C183.954 17.34 183.738 17.484 183.522 18.384C183.198 19.896 182.73 21.408 182.694 22.956C182.334 25.224 182.262 26.124 181.974 28.212L181.83 29.472C181.722 30.228 181.542 30.984 181.578 31.74C181.65 33.648 183.63 34.548 185.286 33.504C184.89 33 184.926 32.424 185.142 31.884C185.61 30.588 186.114 29.328 186.474 27.996C187.158 25.62 188.238 23.424 189.57 21.372C189.75 21.048 189.966 20.724 190.506 20.58L190.182 21.624C189.786 22.776 189.354 23.928 188.994 25.08C188.598 26.34 188.886 26.808 190.11 27.204C190.362 27.312 190.65 27.312 190.938 27.312V26.556C191.082 26.16 191.622 25.26 191.766 24.9C192.162 23.748 192.594 22.596 193.026 21.48C193.314 20.832 193.314 20.148 192.882 19.644C192.378 18.996 191.622 18.78 190.83 19.032ZM201.015 30.552C201.339 28.464 201.051 26.916 200.763 25.908C200.223 23.892 198.819 22.668 196.983 21.876C196.299 21.552 195.507 21.408 194.823 21.876C194.859 21.912 194.859 21.912 194.859 21.948C193.887 24.468 193.203 26.304 192.771 27.672C192.447 28.824 192.375 29.508 192.159 29.976C193.491 28.536 194.175 27.168 194.859 25.944C195.471 24.9 195.867 23.964 196.083 23.316C196.263 23.496 196.407 23.748 196.551 23.964C197.199 25.188 197.631 26.592 197.631 27.996C197.667 28.788 197.775 29.652 197.631 30.444C196.407 30.588 195.507 30.12 194.535 30.552C193.491 30.984 192.951 32.208 193.059 33.396C193.203 35.484 194.319 36.168 197.091 35.7C199.323 35.34 200.187 34.116 200.907 32.352C202.275 31.992 204.255 30.66 204.255 28.176C202.851 29.544 202.131 30.372 201.015 30.552ZM195.111 34.764C194.283 34.692 193.671 33.36 194.391 32.064C194.607 31.632 194.859 31.452 195.327 31.524C195.867 31.632 196.947 31.704 197.667 31.848C197.595 33.9 196.263 34.98 195.111 34.764Z" fill="#797979"/>
<path d="M45.5352 57.922C45.3952 57.7633 45.2319 57.6233 45.0452 57.502C44.8586 57.3713 44.6486 57.2593 44.4152 57.166C44.1819 57.0727 43.9299 56.998 43.6592 56.942C43.3979 56.886 43.1179 56.858 42.8192 56.858C41.9512 56.858 41.3119 57.026 40.9012 57.362C40.4999 57.6887 40.2992 58.1367 40.2992 58.706C40.2992 59.098 40.3926 59.406 40.5792 59.63C40.7752 59.854 41.0786 60.036 41.4892 60.176C41.8999 60.316 42.4226 60.4607 43.0572 60.61C43.7666 60.7593 44.3779 60.9367 44.8912 61.142C45.4046 61.3473 45.8012 61.6273 46.0812 61.982C46.3612 62.3273 46.5012 62.7987 46.5012 63.396C46.5012 63.8533 46.4126 64.25 46.2352 64.586C46.0579 64.922 45.8106 65.202 45.4932 65.426C45.1759 65.65 44.7979 65.818 44.3592 65.93C43.9206 66.0327 43.4399 66.084 42.9172 66.084C42.4039 66.084 41.9092 66.0327 41.4332 65.93C40.9666 65.818 40.5232 65.6593 40.1032 65.454C39.6832 65.2393 39.2912 64.9687 38.9272 64.642L39.4172 63.844C39.5946 64.0307 39.8046 64.208 40.0472 64.376C40.2992 64.5347 40.5746 64.6793 40.8732 64.81C41.1812 64.9407 41.5079 65.0433 41.8532 65.118C42.2079 65.1833 42.5719 65.216 42.9452 65.216C43.7386 65.216 44.3546 65.0713 44.7932 64.782C45.2412 64.4927 45.4652 64.0633 45.4652 63.494C45.4652 63.0833 45.3532 62.7567 45.1292 62.514C44.9052 62.262 44.5692 62.0567 44.1212 61.898C43.6732 61.7393 43.1226 61.5853 42.4692 61.436C41.7786 61.2773 41.1952 61.1 40.7192 60.904C40.2432 60.708 39.8839 60.4513 39.6412 60.134C39.4079 59.8073 39.2912 59.378 39.2912 58.846C39.2912 58.23 39.4406 57.712 39.7392 57.292C40.0472 56.8627 40.4672 56.5407 40.9992 56.326C41.5312 56.102 42.1426 55.99 42.8332 55.99C43.2719 55.99 43.6779 56.0367 44.0512 56.13C44.4339 56.214 44.7839 56.34 45.1012 56.508C45.4279 56.676 45.7312 56.886 46.0112 57.138L45.5352 57.922ZM59.8071 65.132V66H53.1291V56.06H59.6811V56.928H54.1091V60.512H58.9671V61.338H54.1091V65.132H59.8071ZM65.711 60.96C65.711 60.3533 65.8136 59.7607 66.019 59.182C66.2336 58.594 66.5416 58.062 66.943 57.586C67.3443 57.1007 67.839 56.718 68.427 56.438C69.015 56.1487 69.6823 56.004 70.429 56.004C71.3156 56.004 72.0716 56.2093 72.697 56.62C73.3316 57.0213 73.7983 57.5393 74.097 58.174L73.327 58.65C73.1123 58.2113 72.8416 57.866 72.515 57.614C72.1883 57.3527 71.8383 57.166 71.465 57.054C71.101 56.942 70.737 56.886 70.373 56.886C69.7756 56.886 69.2483 57.0073 68.791 57.25C68.3336 57.4833 67.9463 57.8007 67.629 58.202C67.321 58.594 67.0876 59.0373 66.929 59.532C66.7703 60.0173 66.691 60.512 66.691 61.016C66.691 61.5667 66.7843 62.094 66.971 62.598C67.1576 63.102 67.419 63.55 67.755 63.942C68.091 64.3247 68.483 64.6327 68.931 64.866C69.3883 65.09 69.883 65.202 70.415 65.202C70.7883 65.202 71.171 65.1367 71.563 65.006C71.955 64.8753 72.319 64.6747 72.655 64.404C73.0003 64.1333 73.2756 63.7833 73.481 63.354L74.293 63.774C74.0876 64.2687 73.7703 64.6887 73.341 65.034C72.9116 65.3793 72.431 65.6407 71.899 65.818C71.3763 65.9953 70.863 66.084 70.359 66.084C69.6776 66.084 69.0523 65.9393 68.483 65.65C67.9136 65.3513 67.419 64.9593 66.999 64.474C66.5883 63.9793 66.271 63.4287 66.047 62.822C65.823 62.206 65.711 61.5853 65.711 60.96ZM84.7613 66.07C84.0613 66.07 83.4266 65.93 82.8573 65.65C82.2879 65.37 81.7979 64.992 81.3873 64.516C80.9766 64.0307 80.6593 63.4893 80.4353 62.892C80.2113 62.2853 80.0993 61.6647 80.0993 61.03C80.0993 60.3673 80.2159 59.7373 80.4493 59.14C80.6826 58.5333 81.0093 57.9967 81.4293 57.53C81.8586 57.054 82.3579 56.6807 82.9273 56.41C83.4966 56.13 84.1126 55.99 84.7753 55.99C85.4753 55.99 86.1099 56.1347 86.6793 56.424C87.2486 56.7133 87.7339 57.1007 88.1353 57.586C88.5459 58.0713 88.8633 58.6127 89.0873 59.21C89.3113 59.8073 89.4233 60.4187 89.4233 61.044C89.4233 61.7067 89.3066 62.3413 89.0733 62.948C88.8399 63.5453 88.5133 64.082 88.0933 64.558C87.6733 65.0247 87.1786 65.3933 86.6093 65.664C86.0399 65.9347 85.4239 66.07 84.7613 66.07ZM81.0793 61.03C81.0793 61.5713 81.1679 62.094 81.3453 62.598C81.5226 63.0927 81.7746 63.536 82.1013 63.928C82.4279 64.3107 82.8153 64.6187 83.2633 64.852C83.7206 65.076 84.2199 65.188 84.7613 65.188C85.3306 65.188 85.8393 65.0713 86.2873 64.838C86.7446 64.5953 87.1319 64.278 87.4493 63.886C87.7759 63.4847 88.0233 63.0367 88.1913 62.542C88.3593 62.0473 88.4433 61.5433 88.4433 61.03C88.4433 60.4887 88.3546 59.9707 88.1773 59.476C87.9999 58.9813 87.7433 58.538 87.4073 58.146C87.0806 57.754 86.6933 57.446 86.2453 57.222C85.7973 56.998 85.3026 56.886 84.7613 56.886C84.2013 56.886 83.6926 57.0027 83.2353 57.236C82.7873 57.4693 82.3999 57.7867 82.0733 58.188C81.7559 58.58 81.5086 59.0233 81.3313 59.518C81.1633 60.0127 81.0793 60.5167 81.0793 61.03ZM97.1509 57.866V66H96.1709V56.06H96.9829L103.507 64.348V56.074H104.487V66H103.577L97.1509 57.866ZM111.885 66V56.06H115.259C116.314 56.06 117.191 56.284 117.891 56.732C118.601 57.1707 119.133 57.768 119.487 58.524C119.842 59.2707 120.019 60.1013 120.019 61.016C120.019 62.024 119.823 62.9013 119.431 63.648C119.049 64.3947 118.498 64.9733 117.779 65.384C117.07 65.7947 116.23 66 115.259 66H111.885ZM119.039 61.016C119.039 60.2227 118.89 59.518 118.591 58.902C118.302 58.286 117.877 57.8053 117.317 57.46C116.757 57.1053 116.071 56.928 115.259 56.928H112.865V65.132H115.259C116.081 65.132 116.771 64.95 117.331 64.586C117.891 64.222 118.316 63.732 118.605 63.116C118.895 62.4907 119.039 61.7907 119.039 61.016ZM141.072 57.922C140.932 57.7633 140.768 57.6233 140.582 57.502C140.395 57.3713 140.185 57.2593 139.952 57.166C139.718 57.0727 139.466 56.998 139.196 56.942C138.934 56.886 138.654 56.858 138.356 56.858C137.488 56.858 136.848 57.026 136.438 57.362C136.036 57.6887 135.836 58.1367 135.836 58.706C135.836 59.098 135.929 59.406 136.116 59.63C136.312 59.854 136.615 60.036 137.026 60.176C137.436 60.316 137.959 60.4607 138.594 60.61C139.303 60.7593 139.914 60.9367 140.428 61.142C140.941 61.3473 141.338 61.6273 141.618 61.982C141.898 62.3273 142.038 62.7987 142.038 63.396C142.038 63.8533 141.949 64.25 141.772 64.586C141.594 64.922 141.347 65.202 141.03 65.426C140.712 65.65 140.334 65.818 139.896 65.93C139.457 66.0327 138.976 66.084 138.454 66.084C137.94 66.084 137.446 66.0327 136.97 65.93C136.503 65.818 136.06 65.6593 135.64 65.454C135.22 65.2393 134.828 64.9687 134.464 64.642L134.954 63.844C135.131 64.0307 135.341 64.208 135.584 64.376C135.836 64.5347 136.111 64.6793 136.41 64.81C136.718 64.9407 137.044 65.0433 137.39 65.118C137.744 65.1833 138.108 65.216 138.482 65.216C139.275 65.216 139.891 65.0713 140.33 64.782C140.778 64.4927 141.002 64.0633 141.002 63.494C141.002 63.0833 140.89 62.7567 140.666 62.514C140.442 62.262 140.106 62.0567 139.658 61.898C139.21 61.7393 138.659 61.5853 138.006 61.436C137.315 61.2773 136.732 61.1 136.256 60.904C135.78 60.708 135.42 60.4513 135.178 60.134C134.944 59.8073 134.828 59.378 134.828 58.846C134.828 58.23 134.977 57.712 135.276 57.292C135.584 56.8627 136.004 56.5407 136.536 56.326C137.068 56.102 137.679 55.99 138.37 55.99C138.808 55.99 139.214 56.0367 139.588 56.13C139.97 56.214 140.32 56.34 140.638 56.508C140.964 56.676 141.268 56.886 141.548 57.138L141.072 57.922ZM148.007 60.96C148.007 60.3533 148.11 59.7607 148.315 59.182C148.53 58.594 148.838 58.062 149.239 57.586C149.641 57.1007 150.135 56.718 150.723 56.438C151.311 56.1487 151.979 56.004 152.725 56.004C153.612 56.004 154.368 56.2093 154.993 56.62C155.628 57.0213 156.095 57.5393 156.393 58.174L155.623 58.65C155.409 58.2113 155.138 57.866 154.811 57.614C154.485 57.3527 154.135 57.166 153.761 57.054C153.397 56.942 153.033 56.886 152.669 56.886C152.072 56.886 151.545 57.0073 151.087 57.25C150.63 57.4833 150.243 57.8007 149.925 58.202C149.617 58.594 149.384 59.0373 149.225 59.532C149.067 60.0173 148.987 60.512 148.987 61.016C148.987 61.5667 149.081 62.094 149.267 62.598C149.454 63.102 149.715 63.55 150.051 63.942C150.387 64.3247 150.779 64.6327 151.227 64.866C151.685 65.09 152.179 65.202 152.711 65.202C153.085 65.202 153.467 65.1367 153.859 65.006C154.251 64.8753 154.615 64.6747 154.951 64.404C155.297 64.1333 155.572 63.7833 155.777 63.354L156.589 63.774C156.384 64.2687 156.067 64.6887 155.637 65.034C155.208 65.3793 154.727 65.6407 154.195 65.818C153.673 65.9953 153.159 66.084 152.655 66.084C151.974 66.084 151.349 65.9393 150.779 65.65C150.21 65.3513 149.715 64.9593 149.295 64.474C148.885 63.9793 148.567 63.4287 148.343 62.822C148.119 62.206 148.007 61.5853 148.007 60.96ZM169.841 65.132V66H163.163V56.06H169.715V56.928H164.143V60.512H169.001V61.338H164.143V65.132H169.841ZM177.574 57.866V66H176.594V56.06H177.406L183.93 64.348V56.074H184.91V66H184L177.574 57.866ZM198.987 65.132V66H192.309V56.06H198.861V56.928H193.289V60.512H198.147V61.338H193.289V65.132H198.987Z" fill="#797979"/>
</svg>
