<svg width="242" height="81" viewBox="0 0 242 81" fill="none" xmlns="http://www.w3.org/2000/svg">
<path d="M56.4344 10.176C56.4344 9.636 56.1104 9.276 55.6064 9.168C55.0664 9.06 54.4904 8.988 53.9504 8.988C53.4104 9.024 53.1224 9.348 53.0864 9.924C52.9784 11.328 52.7984 12.696 52.7264 14.1L52.4384 20.472C52.4384 20.796 52.3664 21.12 52.2944 21.516L49.5224 21.912C49.0184 21.984 48.7664 21.696 48.7304 21.228L48.6224 16.476C48.5864 14.532 48.9824 12.588 48.4784 10.608C48.1904 9.42 47.3984 8.736 46.1744 8.952C45.4904 9.06 45.3464 9.204 45.3464 9.852C45.3464 11.508 45.3824 13.164 45.3104 14.82C45.2384 17.412 45.5264 20.004 45.3464 22.596C45.1664 25.872 45.0944 29.148 44.5904 32.388C44.3384 34.152 44.4104 34.152 46.1384 34.476C46.2464 34.476 46.3544 34.548 46.4624 34.548C47.4344 34.764 47.8664 34.404 47.8304 33.396C47.7224 32.028 47.9384 30.696 48.1544 29.328C48.3704 27.708 48.5864 26.052 48.7664 24.432C48.8024 24.252 48.7304 24.072 48.7304 23.892C48.7304 23.64 48.7304 23.352 48.7664 23.064L52.0064 22.704C52.5104 24.252 52.0064 25.764 52.0424 27.276C52.0424 27.6 51.8624 27.96 51.8624 28.32C51.7544 30.012 51.6824 31.668 51.2144 33.324C51.0344 34.008 51.4304 34.908 52.0424 35.16C53.1944 35.628 54.3824 36.024 55.6064 35.052V34.152C55.6064 33.18 55.5344 32.208 55.6064 31.236C55.7144 28.788 55.8944 26.376 56.0744 23.928C56.0744 23.712 56.0384 23.496 56.0744 23.28L56.4344 19.644C56.5064 19.104 56.5424 18.564 56.5424 18.024C56.5784 16.512 56.5784 14.964 56.5784 13.416C56.5424 12.336 56.5064 11.256 56.4344 10.176ZM52.4744 24.468V24.396H52.5104C52.5464 24.396 52.5464 24.432 52.5464 24.468H52.4744ZM64.6182 29.328L65.0142 27.6C65.3742 26.016 65.9502 25.584 65.9862 24.612L65.3022 21.696C64.1142 21.516 63.0342 21.336 61.9182 21.12C61.8102 20.4 62.2062 19.788 62.6382 19.32C63.1062 18.852 63.7542 18.564 64.3302 18.168C64.3302 18.096 64.2942 18.024 64.2942 17.952C63.3942 17.772 62.4942 17.556 61.6302 17.34C60.8382 17.16 60.2982 17.34 59.9742 18.024L59.6502 18.564C58.7502 20.544 58.0662 22.632 57.7062 24.828L57.4902 27.132C57.4902 27.348 57.5262 27.564 57.5262 27.78V31.2C57.5622 31.92 57.8862 32.604 58.4982 33.036C59.4342 33.72 60.4782 34.08 61.5582 34.044C62.8542 34.008 63.3942 33.036 63.7542 32.064C63.9702 31.56 64.1142 31.056 64.2582 30.516C64.2942 30.552 64.3302 30.552 64.3662 30.552C65.1942 30.84 65.5542 30.588 66.3102 29.94C67.1022 29.328 67.2462 28.644 67.3542 28.14C66.0582 28.68 65.5542 29.508 64.9062 29.472C64.7982 29.472 64.6902 29.4 64.6182 29.328ZM61.8102 32.208C61.7382 32.424 61.5942 32.64 61.4142 32.784C61.2342 32.928 60.9102 33.108 60.7302 33.036C60.5142 32.964 60.2622 32.604 60.2262 32.352C60.0822 31.632 59.9742 30.912 60.0102 30.228C60.1182 27.42 60.5142 24.684 61.3782 22.128C61.4142 21.984 61.5582 21.876 61.6302 21.732C61.7382 21.768 61.8102 21.768 61.9182 21.768C61.9182 22.704 62.2782 23.424 62.8182 24.108C62.5662 25.764 62.6742 27.492 62.9262 28.32L63.0342 28.788C62.6742 29.94 62.2782 31.092 61.8102 32.208ZM75.1713 9.924C74.0913 9.564 72.9753 9.672 71.8593 9.78C71.2473 9.816 70.8513 10.176 70.5633 10.716C69.6633 12.264 69.0153 13.884 68.5473 15.54C68.0073 17.448 67.6113 19.428 67.1793 21.372C66.6033 24.036 66.1713 26.736 66.3153 29.508C66.3513 30.012 66.2073 30.552 66.3153 31.02C66.5673 32.388 66.6033 34.08 67.3953 35.232C68.0793 36.24 69.0153 36.564 70.1313 36.456C71.3193 36.312 72.9753 34.404 73.2993 33.252C73.9473 32.028 74.8113 30.84 75.6753 28.104C74.2353 29.04 73.7673 30.192 72.7233 31.848C72.6513 32.028 70.0953 35.124 69.9513 35.304L69.5913 35.124C69.5193 35.052 69.4113 34.98 69.4113 34.908C69.4113 33.828 69.6993 30.588 69.8433 29.22C69.9153 28.608 69.9153 27.996 69.9153 27.384C69.9153 26.736 70.3473 26.304 70.9953 25.224C72.3633 23.028 73.0113 21.156 74.0193 18.096C74.1633 17.592 74.4153 17.088 74.5233 16.548L75.7833 10.932C75.9273 10.212 75.8913 10.14 75.1713 9.924ZM74.0913 13.236C73.3353 17.232 72.2553 21.156 70.3113 24.756L70.1313 25.044C70.0593 25.044 70.0233 25.008 69.9513 25.008C70.0233 24.252 70.0593 23.532 70.1673 22.812C70.3113 21.732 70.4553 20.688 70.6713 19.608C70.8153 18.888 70.9593 18.132 71.2113 17.448C71.6793 16.152 72.2193 14.892 72.6873 13.596C72.8673 13.092 73.0113 12.624 73.1553 12.12C73.2633 11.724 73.4073 11.292 74.0193 11.328C74.3793 11.94 74.1993 12.624 74.0913 13.236ZM77.7751 31.56C77.5951 30.3 77.9911 27.672 77.9191 26.412C77.8831 25.116 77.7751 23.82 78.4231 22.668C77.7031 22.092 77.0191 22.308 76.3351 22.38C75.7951 22.452 75.7951 22.992 75.5431 23.316C75.0391 25.08 75.0391 25.584 75.1111 26.988C75.2551 27.384 75.1111 28.572 75.1111 28.68C75.1831 29.328 75.1471 30.444 75.2191 31.092C75.2911 31.848 75.5431 32.676 76.2631 32.856C76.5511 33 77.4871 33.072 77.8111 33.072C78.1351 33.036 80.0071 29.832 80.6911 28.176C79.7911 28.608 78.7111 30.336 77.7751 31.56ZM78.0991 20.148C78.2431 19.572 78.3151 18.996 78.5311 18.456C78.9631 17.34 79.3951 16.188 79.8991 15.108C80.2231 13.92 79.4311 12.444 78.3151 12.624C78.0271 12.66 77.6311 12.948 77.5231 13.2C76.7671 15.036 76.0831 16.908 76.2991 18.924C76.4071 19.968 77.0911 20.436 78.0991 20.148ZM87.7035 26.232C85.5795 26.232 83.7795 26.556 81.6915 26.088C80.3235 25.764 80.2515 25.872 80.5035 27.24L80.5755 27.672C80.8995 28.752 81.5475 28.788 82.6275 28.644C84.8955 28.32 87.1275 28.752 89.6115 28.716C89.5035 28.212 89.5395 27.816 89.3595 27.492C89.0355 26.808 88.6395 26.268 87.7035 26.232ZM102.946 10.176C102.946 9.636 102.622 9.276 102.118 9.168C101.578 9.06 101.002 8.988 100.462 8.988C99.9221 9.024 99.6341 9.348 99.5981 9.924C99.4901 11.328 99.3101 12.696 99.2381 14.1L98.9501 20.472C98.9501 20.796 98.8781 21.12 98.8061 21.516L96.0341 21.912C95.5301 21.984 95.2781 21.696 95.2421 21.228L95.1341 16.476C95.0981 14.532 95.4941 12.588 94.9901 10.608C94.7021 9.42 93.9101 8.736 92.6861 8.952C92.0021 9.06 91.8581 9.204 91.8581 9.852C91.8581 11.508 91.8941 13.164 91.8221 14.82C91.7501 17.412 92.0381 20.004 91.8581 22.596C91.6781 25.872 91.6061 29.148 91.1021 32.388C90.8501 34.152 90.9221 34.152 92.6501 34.476C92.7581 34.476 92.8661 34.548 92.9741 34.548C93.9461 34.764 94.3781 34.404 94.3421 33.396C94.2341 32.028 94.4501 30.696 94.6661 29.328C94.8821 27.708 95.0981 26.052 95.2781 24.432C95.3141 24.252 95.2421 24.072 95.2421 23.892C95.2421 23.64 95.2421 23.352 95.2781 23.064L98.5181 22.704C99.0221 24.252 98.5181 25.764 98.5541 27.276C98.5541 27.6 98.3741 27.96 98.3741 28.32C98.2661 30.012 98.1941 31.668 97.7261 33.324C97.5461 34.008 97.9421 34.908 98.5541 35.16C99.7061 35.628 100.894 36.024 102.118 35.052V34.152C102.118 33.18 102.046 32.208 102.118 31.236C102.226 28.788 102.406 26.376 102.586 23.928C102.586 23.712 102.55 23.496 102.586 23.28L102.946 19.644C103.018 19.104 103.054 18.564 103.054 18.024C103.09 16.512 103.09 14.964 103.09 13.416C103.054 12.336 103.018 11.256 102.946 10.176ZM98.9861 24.468V24.396H99.0221C99.0581 24.396 99.0581 24.432 99.0581 24.468H98.9861ZM111.13 29.328L111.526 27.6C111.886 26.016 112.462 25.584 112.498 24.612L111.814 21.696C110.626 21.516 109.546 21.336 108.43 21.12C108.322 20.4 108.718 19.788 109.15 19.32C109.618 18.852 110.266 18.564 110.842 18.168C110.842 18.096 110.806 18.024 110.806 17.952C109.906 17.772 109.006 17.556 108.142 17.34C107.35 17.16 106.81 17.34 106.486 18.024L106.162 18.564C105.262 20.544 104.578 22.632 104.218 24.828L104.002 27.132C104.002 27.348 104.038 27.564 104.038 27.78V31.2C104.074 31.92 104.398 32.604 105.01 33.036C105.946 33.72 106.99 34.08 108.07 34.044C109.366 34.008 109.906 33.036 110.266 32.064C110.482 31.56 110.626 31.056 110.77 30.516C110.806 30.552 110.842 30.552 110.878 30.552C111.706 30.84 112.066 30.588 112.822 29.94C113.614 29.328 113.758 28.644 113.866 28.14C112.57 28.68 112.066 29.508 111.418 29.472C111.31 29.472 111.202 29.4 111.13 29.328ZM108.322 32.208C108.25 32.424 108.106 32.64 107.926 32.784C107.746 32.928 107.422 33.108 107.242 33.036C107.026 32.964 106.774 32.604 106.738 32.352C106.594 31.632 106.486 30.912 106.522 30.228C106.63 27.42 107.026 24.684 107.89 22.128C107.926 21.984 108.07 21.876 108.142 21.732C108.25 21.768 108.322 21.768 108.43 21.768C108.43 22.704 108.79 23.424 109.33 24.108C109.078 25.764 109.186 27.492 109.438 28.32L109.546 28.788C109.186 29.94 108.79 31.092 108.322 32.208ZM121.683 9.924C120.603 9.564 119.487 9.672 118.371 9.78C117.759 9.816 117.363 10.176 117.075 10.716C116.175 12.264 115.527 13.884 115.059 15.54C114.519 17.448 114.123 19.428 113.691 21.372C113.115 24.036 112.683 26.736 112.827 29.508C112.863 30.012 112.719 30.552 112.827 31.02C113.079 32.388 113.115 34.08 113.907 35.232C114.591 36.24 115.527 36.564 116.643 36.456C117.831 36.312 119.487 34.404 119.811 33.252C120.459 32.028 121.323 30.84 122.187 28.104C120.747 29.04 120.279 30.192 119.235 31.848C119.163 32.028 116.607 35.124 116.463 35.304L116.103 35.124C116.031 35.052 115.923 34.98 115.923 34.908C115.923 33.828 116.211 30.588 116.355 29.22C116.427 28.608 116.427 27.996 116.427 27.384C116.427 26.736 116.859 26.304 117.507 25.224C118.875 23.028 119.523 21.156 120.531 18.096C120.675 17.592 120.927 17.088 121.035 16.548L122.295 10.932C122.439 10.212 122.403 10.14 121.683 9.924ZM120.603 13.236C119.847 17.232 118.767 21.156 116.823 24.756L116.643 25.044C116.571 25.044 116.535 25.008 116.463 25.008C116.535 24.252 116.571 23.532 116.679 22.812C116.823 21.732 116.967 20.688 117.183 19.608C117.327 18.888 117.471 18.132 117.723 17.448C118.191 16.152 118.731 14.892 119.199 13.596C119.379 13.092 119.523 12.624 119.667 12.12C119.775 11.724 119.919 11.292 120.531 11.328C120.891 11.94 120.711 12.624 120.603 13.236ZM136.635 28.176C135.375 28.824 134.079 30.696 133.287 29.184C132.783 28.248 133.539 27.132 133.575 26.088C133.683 23.856 130.839 22.776 129.903 24.792C129.507 25.692 129.399 26.772 128.967 27.708C128.463 28.86 127.851 29.976 127.203 31.056C126.843 31.704 126.267 32.964 125.619 33.36C124.035 34.332 124.359 32.856 124.503 31.74C124.647 30.336 124.719 28.932 124.899 27.528C125.043 25.98 125.979 24.9 124.143 24.288C122.235 23.604 121.911 24.144 121.587 25.8C121.335 27.276 121.011 28.824 121.083 30.3C121.191 32.424 122.343 35.772 125.151 35.124C127.203 34.656 128.355 30.876 129.219 29.292C128.607 33 123.531 48.84 130.767 48.372C134.799 48.12 134.547 40.704 134.691 37.932C134.763 36.096 134.151 34.332 134.475 32.532C134.691 31.524 135.915 30.3 136.635 28.176ZM133.467 35.52C133.467 39.228 133.395 44.016 131.631 47.364C129.111 45.168 130.551 39.084 131.199 36.312C131.343 35.664 132.135 30.66 132.783 30.552C133.719 30.408 133.467 34.872 133.467 35.52ZM143.672 26.232C141.548 26.232 139.748 26.556 137.66 26.088C136.292 25.764 136.22 25.872 136.472 27.24L136.544 27.672C136.868 28.752 137.516 28.788 138.596 28.644C140.864 28.32 143.096 28.752 145.58 28.716C145.472 28.212 145.508 27.816 145.328 27.492C145.004 26.808 144.608 26.268 143.672 26.232ZM158.555 9.168C158.159 9.24 157.691 9.384 157.367 9.636C154.847 11.58 152.723 13.848 151.751 16.98C151.643 17.304 151.427 17.628 151.283 17.916C151.175 17.916 151.067 17.88 150.959 17.844C150.959 16.584 150.959 15.36 150.995 14.1C150.995 12.948 150.599 11.976 150.023 11.076C149.375 10.104 148.223 9.78 146.963 10.14C147.035 10.464 147.071 10.824 147.179 11.148C147.899 13.992 148.331 16.872 148.295 19.788C148.295 22.416 148.331 25.044 148.259 27.672C148.223 29.22 148.043 30.768 147.863 32.28C147.791 33.288 147.863 33.396 148.835 33.72L149.555 33.972C150.419 34.26 150.779 33.972 150.815 33.108C150.815 31.884 150.815 30.696 150.887 29.472L151.247 24.216C151.355 22.128 152.183 20.22 152.723 18.276C152.939 17.484 153.227 16.692 153.551 15.936C154.199 14.46 155.171 13.236 156.179 12.012C156.647 11.472 157.151 10.968 157.871 10.752C158.087 11.688 158.123 12.156 157.727 13.308C157.079 15.18 156.359 17.016 155.639 18.852C154.883 20.868 154.127 22.884 152.543 24.756C153.011 25.08 153.335 25.368 153.731 25.512C154.271 25.728 154.883 25.872 155.459 26.052C156.719 26.376 157.151 27.528 156.431 28.608L155.783 29.472C154.595 30.84 153.443 32.208 152.651 33.828C152.399 34.332 152.471 34.656 152.867 34.944C153.839 35.736 154.919 35.592 155.639 34.548C155.963 34.152 156.179 33.684 156.467 33.288C156.647 32.964 156.899 32.712 157.151 32.46L159.851 29.256C159.923 29.184 159.959 29.076 159.959 28.968C160.175 27.42 159.095 25.692 157.583 25.152C157.259 25.044 156.935 25.008 156.647 24.9L155.891 24.648C155.999 24.324 156.071 24.036 156.179 23.784L158.051 19.896C158.411 19.068 158.699 18.204 159.131 17.448C159.851 16.188 160.211 14.784 160.571 13.38C160.787 12.444 160.859 11.472 160.607 10.5C160.319 9.456 159.635 8.952 158.555 9.168ZM170.568 31.812C170.532 31.596 170.496 31.416 170.496 31.272C170.568 29.904 170.784 28.536 171.216 27.24C171.684 25.8 171.504 25.512 169.992 25.404C169.812 25.368 169.632 25.404 169.452 25.368C169.02 25.26 168.696 25.44 168.444 25.8C167.832 26.628 167.184 27.456 166.608 28.356C165.96 29.4 165.384 30.516 164.736 31.632C164.628 31.812 164.448 31.956 164.124 32.244V31.2C164.196 29.94 164.484 28.788 164.844 27.6C165.204 26.412 165.636 25.296 166.32 24.288C166.68 23.784 167.04 23.532 167.652 23.568C168.084 23.604 168.516 23.46 169.128 23.388C168.912 23.028 168.804 22.812 168.66 22.74C168.156 22.56 167.652 22.38 167.112 22.344C166.32 22.236 165.528 22.344 164.736 22.236C164.232 22.2 163.908 22.38 163.656 22.776C163.368 23.208 163.116 23.712 162.9 24.18C162.288 25.476 161.604 26.664 161.064 28.932C160.776 30.48 161.028 33 161.136 33.18C161.676 34.08 162.54 34.44 163.476 34.512C164.664 34.62 165.42 34.584 166.104 33.144C166.392 32.532 166.752 31.92 167.184 31.2C167.472 31.956 167.616 32.532 167.904 33.072C168.552 34.476 170.352 34.692 171.324 33.504C172.116 32.244 173.052 31.092 174.276 28.176C172.836 29.112 171.396 30.624 170.568 31.812ZM182.045 30.552C182.369 28.464 182.081 26.916 181.793 25.908C181.253 23.892 179.849 22.668 178.013 21.876C177.329 21.552 176.537 21.408 175.853 21.876C175.889 21.912 175.889 21.912 175.889 21.948C174.917 24.468 174.233 26.304 173.801 27.672C173.477 28.824 173.405 29.508 173.189 29.976C174.521 28.536 175.205 27.168 175.889 25.944C176.501 24.9 176.897 23.964 177.113 23.316C177.293 23.496 177.437 23.748 177.581 23.964C178.229 25.188 178.661 26.592 178.661 27.996C178.697 28.788 178.805 29.652 178.661 30.444C177.437 30.588 176.537 30.12 175.565 30.552C174.521 30.984 173.981 32.208 174.089 33.396C174.233 35.484 175.349 36.168 178.121 35.7C180.353 35.34 181.217 34.116 181.937 32.352C183.305 31.992 185.285 30.66 185.285 28.176C183.881 29.544 183.161 30.372 182.045 30.552ZM176.141 34.764C175.313 34.692 174.701 33.36 175.421 32.064C175.637 31.632 175.889 31.452 176.357 31.524C176.897 31.632 177.977 31.704 178.697 31.848C178.625 33.9 177.293 34.98 176.141 34.764ZM187.181 31.56C187.001 30.3 187.397 27.672 187.325 26.412C187.289 25.116 187.181 23.82 187.829 22.668C187.109 22.092 186.425 22.308 185.741 22.38C185.201 22.452 185.201 22.992 184.949 23.316C184.445 25.08 184.445 25.584 184.517 26.988C184.661 27.384 184.517 28.572 184.517 28.68C184.589 29.328 184.553 30.444 184.625 31.092C184.697 31.848 184.949 32.676 185.669 32.856C185.957 33 186.893 33.072 187.217 33.072C187.541 33.036 189.413 29.832 190.097 28.176C189.197 28.608 188.117 30.336 187.181 31.56ZM187.505 20.148C187.649 19.572 187.721 18.996 187.937 18.456C188.369 17.34 188.801 16.188 189.305 15.108C189.629 13.92 188.837 12.444 187.721 12.624C187.433 12.66 187.037 12.948 186.929 13.2C186.173 15.036 185.489 16.908 185.705 18.924C185.813 19.968 186.497 20.436 187.505 20.148ZM197.902 9.924C196.822 9.564 195.706 9.672 194.59 9.78C193.978 9.816 193.582 10.176 193.294 10.716C192.394 12.264 191.746 13.884 191.278 15.54C190.738 17.448 190.342 19.428 189.91 21.372C189.334 24.036 188.902 26.736 189.046 29.508C189.082 30.012 188.938 30.552 189.046 31.02C189.298 32.388 189.334 34.08 190.126 35.232C190.81 36.24 191.746 36.564 192.862 36.456C194.05 36.312 195.706 34.404 196.03 33.252C196.678 32.028 197.542 30.84 198.406 28.104C196.966 29.04 196.498 30.192 195.454 31.848C195.382 32.028 192.826 35.124 192.682 35.304L192.322 35.124C192.25 35.052 192.142 34.98 192.142 34.908C192.142 33.828 192.43 30.588 192.574 29.22C192.646 28.608 192.646 27.996 192.646 27.384C192.646 26.736 193.078 26.304 193.726 25.224C195.094 23.028 195.742 21.156 196.75 18.096C196.894 17.592 197.146 17.088 197.254 16.548L198.514 10.932C198.658 10.212 198.622 10.14 197.902 9.924ZM196.822 13.236C196.066 17.232 194.986 21.156 193.042 24.756L192.862 25.044C192.79 25.044 192.754 25.008 192.682 25.008C192.754 24.252 192.79 23.532 192.898 22.812C193.042 21.732 193.186 20.688 193.402 19.608C193.546 18.888 193.69 18.132 193.942 17.448C194.41 16.152 194.95 14.892 195.418 13.596C195.598 13.092 195.742 12.624 195.886 12.12C195.994 11.724 196.138 11.292 196.75 11.328C197.11 11.94 196.93 12.624 196.822 13.236Z" fill="#797979"/>
<path d="M53.7818 66V56.06H60.3058V56.928H54.7618V60.582H59.4378V61.394H54.7618V66H53.7818ZM66.926 66V56.06H67.906V66H66.926ZM75.2986 66V56.06H79.4986C79.9279 56.06 80.3199 56.1487 80.6746 56.326C81.0293 56.5033 81.3373 56.746 81.5986 57.054C81.8693 57.3527 82.0746 57.6887 82.2146 58.062C82.3639 58.426 82.4386 58.7993 82.4386 59.182C82.4386 59.658 82.3453 60.106 82.1586 60.526C81.9813 60.946 81.7246 61.3007 81.3886 61.59C81.0619 61.8793 80.6746 62.0707 80.2266 62.164L82.6626 66H81.5566L79.2186 62.332H76.2786V66H75.2986ZM76.2786 61.464H79.5266C79.9186 61.464 80.2593 61.3567 80.5486 61.142C80.8379 60.9273 81.0619 60.6473 81.2206 60.302C81.3793 59.9473 81.4586 59.574 81.4586 59.182C81.4586 58.7807 81.3653 58.412 81.1786 58.076C81.0013 57.7307 80.7586 57.4553 80.4506 57.25C80.1519 57.0353 79.8159 56.928 79.4426 56.928H76.2786V61.464ZM95.1551 57.922C95.0151 57.7633 94.8518 57.6233 94.6651 57.502C94.4784 57.3713 94.2684 57.2593 94.0351 57.166C93.8018 57.0727 93.5498 56.998 93.2791 56.942C93.0178 56.886 92.7378 56.858 92.4391 56.858C91.5711 56.858 90.9318 57.026 90.5211 57.362C90.1198 57.6887 89.9191 58.1367 89.9191 58.706C89.9191 59.098 90.0124 59.406 90.1991 59.63C90.3951 59.854 90.6984 60.036 91.1091 60.176C91.5198 60.316 92.0424 60.4607 92.6771 60.61C93.3864 60.7593 93.9978 60.9367 94.5111 61.142C95.0244 61.3473 95.4211 61.6273 95.7011 61.982C95.9811 62.3273 96.1211 62.7987 96.1211 63.396C96.1211 63.8533 96.0324 64.25 95.8551 64.586C95.6778 64.922 95.4304 65.202 95.1131 65.426C94.7958 65.65 94.4178 65.818 93.9791 65.93C93.5404 66.0327 93.0598 66.084 92.5371 66.084C92.0238 66.084 91.5291 66.0327 91.0531 65.93C90.5864 65.818 90.1431 65.6593 89.7231 65.454C89.3031 65.2393 88.9111 64.9687 88.5471 64.642L89.0371 63.844C89.2144 64.0307 89.4244 64.208 89.6671 64.376C89.9191 64.5347 90.1944 64.6793 90.4931 64.81C90.8011 64.9407 91.1278 65.0433 91.4731 65.118C91.8278 65.1833 92.1918 65.216 92.5651 65.216C93.3584 65.216 93.9744 65.0713 94.4131 64.782C94.8611 64.4927 95.0851 64.0633 95.0851 63.494C95.0851 63.0833 94.9731 62.7567 94.7491 62.514C94.5251 62.262 94.1891 62.0567 93.7411 61.898C93.2931 61.7393 92.7424 61.5853 92.0891 61.436C91.3984 61.2773 90.8151 61.1 90.3391 60.904C89.8631 60.708 89.5038 60.4513 89.2611 60.134C89.0278 59.8073 88.9111 59.378 88.9111 58.846C88.9111 58.23 89.0604 57.712 89.3591 57.292C89.6671 56.8627 90.0871 56.5407 90.6191 56.326C91.1511 56.102 91.7624 55.99 92.4531 55.99C92.8918 55.99 93.2978 56.0367 93.6711 56.13C94.0538 56.214 94.4038 56.34 94.7211 56.508C95.0478 56.676 95.3511 56.886 95.6311 57.138L95.1551 57.922ZM109.791 56.928H106.249V66H105.269V56.928H101.727V56.06H109.791V56.928ZM130.048 57.922C129.908 57.7633 129.745 57.6233 129.558 57.502C129.372 57.3713 129.162 57.2593 128.928 57.166C128.695 57.0727 128.443 56.998 128.172 56.942C127.911 56.886 127.631 56.858 127.332 56.858C126.464 56.858 125.825 57.026 125.414 57.362C125.013 57.6887 124.812 58.1367 124.812 58.706C124.812 59.098 124.906 59.406 125.092 59.63C125.288 59.854 125.592 60.036 126.002 60.176C126.413 60.316 126.936 60.4607 127.57 60.61C128.28 60.7593 128.891 60.9367 129.404 61.142C129.918 61.3473 130.314 61.6273 130.594 61.982C130.874 62.3273 131.014 62.7987 131.014 63.396C131.014 63.8533 130.926 64.25 130.748 64.586C130.571 64.922 130.324 65.202 130.006 65.426C129.689 65.65 129.311 65.818 128.872 65.93C128.434 66.0327 127.953 66.084 127.43 66.084C126.917 66.084 126.422 66.0327 125.946 65.93C125.48 65.818 125.036 65.6593 124.616 65.454C124.196 65.2393 123.804 64.9687 123.44 64.642L123.93 63.844C124.108 64.0307 124.318 64.208 124.56 64.376C124.812 64.5347 125.088 64.6793 125.386 64.81C125.694 64.9407 126.021 65.0433 126.366 65.118C126.721 65.1833 127.085 65.216 127.458 65.216C128.252 65.216 128.868 65.0713 129.306 64.782C129.754 64.4927 129.978 64.0633 129.978 63.494C129.978 63.0833 129.866 62.7567 129.642 62.514C129.418 62.262 129.082 62.0567 128.634 61.898C128.186 61.7393 127.636 61.5853 126.982 61.436C126.292 61.2773 125.708 61.1 125.232 60.904C124.756 60.708 124.397 60.4513 124.154 60.134C123.921 59.8073 123.804 59.378 123.804 58.846C123.804 58.23 123.954 57.712 124.252 57.292C124.56 56.8627 124.98 56.5407 125.512 56.326C126.044 56.102 126.656 55.99 127.346 55.99C127.785 55.99 128.191 56.0367 128.564 56.13C128.947 56.214 129.297 56.34 129.614 56.508C129.941 56.676 130.244 56.886 130.524 57.138L130.048 57.922ZM136.984 60.96C136.984 60.3533 137.087 59.7607 137.292 59.182C137.507 58.594 137.815 58.062 138.216 57.586C138.618 57.1007 139.112 56.718 139.7 56.438C140.288 56.1487 140.956 56.004 141.702 56.004C142.589 56.004 143.345 56.2093 143.97 56.62C144.605 57.0213 145.072 57.5393 145.37 58.174L144.6 58.65C144.386 58.2113 144.115 57.866 143.788 57.614C143.462 57.3527 143.112 57.166 142.738 57.054C142.374 56.942 142.01 56.886 141.646 56.886C141.049 56.886 140.522 57.0073 140.064 57.25C139.607 57.4833 139.22 57.8007 138.902 58.202C138.594 58.594 138.361 59.0373 138.202 59.532C138.044 60.0173 137.964 60.512 137.964 61.016C137.964 61.5667 138.058 62.094 138.244 62.598C138.431 63.102 138.692 63.55 139.028 63.942C139.364 64.3247 139.756 64.6327 140.204 64.866C140.662 65.09 141.156 65.202 141.688 65.202C142.062 65.202 142.444 65.1367 142.836 65.006C143.228 64.8753 143.592 64.6747 143.928 64.404C144.274 64.1333 144.549 63.7833 144.754 63.354L145.566 63.774C145.361 64.2687 145.044 64.6887 144.614 65.034C144.185 65.3793 143.704 65.6407 143.172 65.818C142.65 65.9953 142.136 66.084 141.632 66.084C140.951 66.084 140.326 65.9393 139.756 65.65C139.187 65.3513 138.692 64.9593 138.272 64.474C137.862 63.9793 137.544 63.4287 137.32 62.822C137.096 62.206 136.984 61.5853 136.984 60.96ZM158.818 65.132V66H152.14V56.06H158.692V56.928H153.12V60.512H157.978V61.338H153.12V65.132H158.818ZM166.551 57.866V66H165.571V56.06H166.383L172.907 64.348V56.074H173.887V66H172.977L166.551 57.866ZM187.964 65.132V66H181.286V56.06H187.838V56.928H182.266V60.512H187.124V61.338H182.266V65.132H187.964Z" fill="#797979"/>
</svg>
