<svg width="311" height="103" viewBox="0 0 311 103" fill="none" xmlns="http://www.w3.org/2000/svg">
<path fill-rule="evenodd" clip-rule="evenodd" d="M80.6044 18.4988C78.0921 18.3954 75.5722 18.3581 73.0549 18.3599C72.8218 18.3783 72.5942 18.855 72.2668 19.2348L74.6349 19.6511C74.6447 19.8077 74.6546 19.9642 74.6636 20.1077L69.5202 21.5488L68.7873 19.3911C67.2614 21.7531 65.2328 21.5198 62.5807 21.4274L64.8584 23.2011C60.9901 23.506 57.4496 23.9949 53.9119 23.9723C53.1363 23.9151 52.3616 24.0997 51.674 24.5057C50.9864 24.9116 50.4128 25.523 50.0169 26.272C52.1186 26.7355 54.0839 27.0788 55.9575 27.6389C56.4094 27.845 56.8988 27.9265 57.3847 27.8768C57.8706 27.8271 58.3387 27.6476 58.7498 27.3533C59.4994 26.7829 60.4015 26.5188 61.3046 26.6051C62.2077 26.6915 63.0568 27.1231 63.7092 27.8275L58.584 32.1643C58.3259 32.0719 58.0784 31.9462 57.8462 31.7899C55.8172 30.0621 55.7622 30.1189 53.9703 32.161C53.418 32.7327 52.7212 33.099 51.9755 33.2097C50.5307 33.3236 49.0777 33.3071 47.628 33.3427C44.7433 33.2522 41.8565 33.3834 38.9878 33.7355C36.9526 34.2383 34.8403 34.1983 32.8214 33.6186C32.6454 33.5476 32.4581 33.5185 32.2715 33.5332C32.0849 33.5479 31.9031 33.6061 31.7378 33.704C30.0601 35.5143 27.9228 34.8569 26.1941 35.1112C22.7573 32.2228 19.0508 32.1217 15.2956 32.5488L14.9654 33.2566L17.2486 34.5579C15.6227 35.4228 13.9307 36.1222 12.1928 36.6476C10.6245 36.7625 9.04964 36.6889 7.49531 36.428C8.06121 37.163 8.81859 37.6809 9.661 37.909C12.4304 38.9361 12.4304 38.9361 12.573 42.3202L14.9033 42.1364C14.6321 41.1746 14.4089 40.4188 14.1102 39.3936C16.9712 39.4564 15.8054 42.144 16.7211 43.6711C19.8879 45.2437 23.8686 43.9335 27.3913 45.7664L26.0763 47.7578C27.6732 47.8285 28.9048 47.8625 30.1397 47.9487C30.9929 47.8974 31.8481 47.9936 32.6751 48.2339C33.1372 48.4934 33.6443 48.6372 34.161 48.6554C34.6778 48.6735 35.1919 48.5655 35.6676 48.3388C37.4101 47.5591 38.7065 48.6236 39.0591 50.6933C38.4116 51.7537 35.7166 50.2358 36.3824 53.0018C37.5638 53.1196 38.7322 53.3656 39.8711 53.7362C41.6663 54.5385 43.3039 55.6286 45.4046 55.3319C46.4258 55.1858 46.9301 56.1292 46.1992 57.3536C42.9478 57.4133 39.7236 58.6507 36.4485 57.2178C35.5335 56.818 34.3831 57.1446 33.9969 59.0104L39.2142 59.674L38.3718 61.733C36.3453 60.9752 34.4848 60.6237 32.815 62.9315C33.299 63.2432 33.8276 63.4588 34.3773 63.5686C35.1043 63.4464 35.8247 63.2802 36.5356 63.0707C36.7803 63.0515 37.0498 63.24 37.4699 63.4035L35.6429 64.7011C35.906 65.5325 36.1267 66.2492 36.4171 67.144L31.5014 67.1776C33.3259 68.6331 34.6103 70.0656 33.6306 73.1055C35.8162 71.9238 37.4405 72.0579 38.868 73.5316C42.3758 73.4517 45.6152 75.6215 49.3014 75.2129C50.7811 75.0963 52.0135 75.1433 52.808 73.6256C53.2255 73.9335 53.5716 74.0373 53.6928 74.2899C55.2879 77.3104 57.8119 77.4129 60.5408 77.2371C62.6615 77.0492 64.7935 77.0919 66.9069 77.3645C68.9172 77.6779 70.8532 78.2987 72.8712 77.4317C73.0063 77.3776 73.1499 77.3543 73.2932 77.3632C73.4366 77.3722 73.5769 77.4132 73.7058 77.4839C75.5589 78.6488 77.3343 78.2073 79.18 77.3932C79.6509 77.0779 80.2083 76.9658 80.7478 77.0777C81.2873 77.1896 81.7718 77.5179 82.1105 78.0012C78.3824 79.9572 74.3616 81.1188 70.2537 81.4267C73.5596 82.7916 77.7142 80.5239 80.9517 83.9655L79.6882 85.1007C87.2272 84.8865 94.2119 84.7947 101.183 84.4811C110.687 84.0595 120.176 83.377 129.683 82.9945C133.841 82.8241 138.018 83.1502 142.19 83.2015C148.05 83.2901 154.042 83.2372 159.954 83.4004C167.319 83.5931 174.684 83.9564 182.058 84.2796C185.45 84.4185 188.849 84.6487 192.244 84.6432C196.928 84.6411 201.596 84.4041 206.278 84.3628C215.791 84.2682 225.293 84.1745 234.804 84.2113C242.462 84.2694 250.117 83.8366 257.731 82.9151C263.986 82.248 270.193 81.1016 276.308 79.484C277.643 79.1773 278.999 79.0002 280.362 78.9547C283.053 78.7426 285.756 78.5295 288.453 78.3955C289.419 78.2603 290.392 78.1836 291.365 78.1659C294.963 78.2792 298.554 77.7528 302.005 76.6061C306.049 75.3827 308.208 70.9782 306.417 66.8851C305.573 64.8127 305.425 62.4689 306.001 60.2846C306.972 55.4232 308.285 50.6134 307.59 45.5162C307.526 44.6299 307.596 43.7378 307.799 42.8779C308.476 38.7476 308.633 34.7368 306.84 30.8012C306.374 29.5056 306.193 28.1035 306.314 26.7133C306.435 25.8455 306.282 24.9575 305.882 24.2019C305.482 23.4464 304.86 22.8705 304.121 22.5732C303.24 22.1576 302.31 21.89 301.388 21.5564C300.269 21.2324 299.172 20.824 298.102 20.334C295.058 18.6601 291.735 18.5157 288.48 18.1431C286.487 17.92 284.425 18.4627 282.448 18.1074C279.564 17.6414 276.644 17.5288 273.738 17.7715C271.408 17.9552 269.162 17.9881 266.869 18.0246C266.116 18.1564 265.345 18.0728 264.629 17.7817C263.698 17.1857 262.657 16.837 261.587 16.7622C260.516 16.6875 259.445 16.8889 258.455 17.3509C257.518 17.6444 256.567 17.8727 255.605 18.0343C251.157 18.988 246.63 18.4928 242.125 19.0971C238.224 19.8467 234.227 19.6842 230.385 18.6199C229.725 18.5549 229.06 18.6521 228.436 18.9047C227.803 19.1719 227.139 19.3389 226.465 19.4009C222.919 18.8808 219.374 18.3606 215.815 17.6187C214.473 17.3312 213.245 16.7987 211.86 17.4848C211.211 17.6542 210.543 17.7069 209.879 17.6409L205.347 17.9982L204.212 16.5277C203.387 16.8156 202.369 16.8172 201.924 17.3767C200.351 19.5457 197.986 18.998 196.042 19.7412C195.552 19.9503 194.69 19.4676 194.405 19.7785C192.903 21.4045 191.28 20.7328 189.745 20.1459C189.006 19.763 188.195 19.5869 187.382 19.6328C186.569 19.6786 185.778 19.945 185.078 20.409C184.833 20.5703 184.558 20.6658 184.275 20.6881C183.992 20.7105 183.709 20.6589 183.446 20.5376C183.006 20.2446 182.873 19.4292 182.546 18.6946C181.882 19.4478 181.03 19.9579 180.102 20.1574C179.173 20.357 178.213 20.2367 177.347 19.8124C176.244 19.5341 175.109 19.4554 173.984 19.5794C168.891 19.4041 163.789 19.2819 158.731 19.0908C157.405 19.0511 156.086 18.7487 154.759 18.6829C150.976 18.483 147.198 18.3614 143.414 18.1484C142.652 18.0415 141.898 17.8731 141.158 17.6446C141.539 15.8842 142.439 16.2327 143.415 16.2999C145.316 16.5434 147.232 16.6676 149.154 16.6996C150.327 16.7251 151.472 16.3202 152.557 16.4313C154.908 16.5868 157.159 16.9993 159.466 17.1975C160.912 17.3538 162.367 17.3925 163.818 17.3133C164.727 17.2416 165.822 17.1553 165.84 15.3972C165.535 15.1751 165.196 15.0195 164.839 14.9386C162.319 14.8883 159.798 14.8379 157.273 14.9059C154.935 14.9722 152.619 15.3777 150.272 15.2875C145.13 15.0767 140.024 14.8762 134.987 16.3352C134.703 16.3976 134.413 16.4204 134.124 16.4031C131.026 16.477 127.935 16.4716 124.84 16.6107C117.566 16.9351 110.295 17.3248 103.036 17.7005C102.359 17.6308 101.678 17.7567 101.057 18.0663C100.211 18.7753 99.5102 18.4242 98.6389 18.3486C95.3803 18.1074 92.1206 18.0366 88.787 17.9062C88.5074 17.9282 88.1112 17.9595 87.9547 18.0767C86.6441 19.7662 85.0991 19.403 83.4509 18.8906C82.5205 18.6269 81.5641 18.4953 80.6044 18.4988V18.4988ZM272.072 78.0352L272.193 78.8384L268.724 79.5314C269.036 78.881 269.542 78.3744 270.155 78.1007C270.767 77.8271 271.446 77.8038 272.072 78.0352V78.0352ZM183.479 76.3413C183.495 76.6022 183.511 76.8631 183.528 77.124L180.032 77.3996C181.11 76.1085 182.296 76.3428 183.479 76.3413V76.3413ZM129.421 78.2696C130.575 79.8567 132.101 79.3693 133.524 79.6504C134.003 79.7816 134.469 79.9643 134.917 80.196C134.594 80.641 134.293 81.4513 133.944 81.4788C131.497 81.6717 129.032 82.5084 126.314 81.3724C126.609 80.4795 126.945 79.6042 127.32 78.7499C127.831 77.7526 128.767 77.3642 129.421 78.2696ZM112.079 81.7999C113.362 80.5976 114.796 80.8647 116.785 81.0356C114.935 82.8987 113.466 82.2542 112.056 81.8017L112.079 81.7999ZM100.135 80.1196C100.818 80.3542 101.411 80.858 102.093 81.0796C102.658 81.2096 103.236 81.2652 103.813 81.2455C104.988 81.3102 106.345 81.8586 107.096 81.3144C108.471 80.2883 109.566 80.9361 110.797 81.1406L110.986 81.9123C109.756 82.3618 108.498 82.7064 107.222 82.9432C104.059 83.2974 100.883 83.4429 97.7023 83.6936C96.2638 83.8924 94.817 84.0065 93.3679 84.0354C92.8203 84.0785 92.3034 83.3065 91.8347 82.5569C94.5267 82.7248 96.2268 80.8997 97.7159 79.6287C98.5234 79.7421 99.324 79.9111 100.113 80.1345L100.135 80.1196ZM97.3813 77.846C98.5576 76.4423 98.5576 76.4423 100.387 76.2981C99.5723 78.0534 98.4741 77.7205 97.3588 77.8609L97.3813 77.846ZM193.882 68.6125C194.78 69.1529 195.777 69.4506 196.796 69.4818C197.815 69.5131 198.826 69.277 199.748 68.7924C201.153 68.2359 201.873 68.5069 202.37 69.8966C200.282 70.4291 198.169 70.8234 196.039 71.0774C194.441 71.059 192.851 70.8098 191.309 70.3361C191.15 70.2704 191.013 70.1526 190.915 69.9981C190.816 69.8435 190.762 69.6593 190.759 69.4697C190.756 69.2801 190.804 69.0939 190.897 68.9354C190.99 68.777 191.124 68.6537 191.281 68.5817C192.122 68.2802 193.028 68.2963 193.86 68.6274L193.882 68.6125ZM188.509 69.1935C188.286 69.5722 187.984 69.8841 187.629 70.1018C187.629 70.1018 187.111 69.6838 187.149 69.5366C187.308 69.0164 187.516 68.5166 187.769 68.0457C188.169 68.6303 188.559 69.0584 188.486 69.2083L188.509 69.1935ZM185.236 68.7304C185.365 68.7203 185.409 69.4247 185.65 70.4676C183.617 69.7889 181.872 70.3459 180.588 69.11C180.64 68.8175 180.679 68.5129 180.72 68.2213C182.206 68.3926 183.712 68.5098 185.214 68.7453L185.236 68.7304ZM131.873 71.089L128.245 71.1129C130.005 69.8599 130.005 69.8599 131.851 71.1039L131.873 71.089ZM84.435 71.2108C83.0868 72.3003 82.365 72.5538 81.1582 70.8661L84.435 71.2108ZM42.2455 68.4018C41.542 68.7588 40.5071 68.316 38.9286 68.1651L42.5726 65.5968C42.7789 65.7691 42.9404 65.9997 43.0406 66.2651C43.1409 66.5304 43.1761 66.8209 43.1428 67.1066C43.1095 67.3922 43.0088 67.6628 42.8511 67.8905C42.6934 68.1181 42.4844 68.2946 42.2455 68.4018V68.4018ZM54.6519 60.8691L54.2597 62.0798L53.8255 61.8781C53.9889 61.4981 54.1399 61.1061 54.2909 60.714L54.6519 60.8691ZM50.008 62.9918C49.5691 63.459 49.2056 64.1956 48.8086 64.2138C47.0853 64.3525 45.3543 64.3134 43.6375 64.0971C41.638 63.7697 42.0594 61.5341 40.8044 59.8239C44.5742 59.8151 47.5074 60.0952 49.9739 63.0076L50.008 62.9918ZM171.375 41.2188C168.064 42.3843 164.733 41.1656 161.402 41.2709C164.698 39.8705 168.022 40.4081 171.341 41.2346L171.375 41.2188ZM99.3841 28.1481C99.3734 27.9785 99.4684 27.8137 99.5044 27.6404L100.617 28.0246C100.625 28.142 100.563 28.278 100.524 28.3991L99.3841 28.1481ZM178.246 22.9402L177.586 24.5391L177.103 24.315L177.703 22.6815L178.246 22.9402ZM114.579 25.4819C115.205 25.7741 115.894 25.8564 116.561 25.7189C117.155 25.6403 117.756 25.7859 118.267 26.1326C118.779 26.4793 119.173 27.0074 119.386 27.633L122.666 25.6047L120.453 30.0659C119.102 29.6349 117.678 29.1442 116.235 28.7335C115.221 28.4333 114.254 28.1425 113.41 29.4282C112.806 30.184 112.033 30.747 111.171 31.0598C110.761 31.2364 109.784 30.9726 109.682 30.6529C108.913 28.3014 107.208 28.5538 105.585 28.6293C104.963 28.5764 104.349 28.4399 103.756 28.2229C103.741 27.975 103.807 27.7208 103.826 27.4701C104.773 27.4676 105.719 27.3931 106.657 27.2469C108.141 26.8721 109.605 26.4066 111.043 25.8525C112.201 25.4597 113.25 24.6428 114.579 25.4819ZM115.999 21.4372C114.589 20.6176 115.015 19.391 115.269 18.3879C115.335 18.1466 116.214 18.156 117.14 17.9782L115.999 21.4372ZM39.3316 28.032C35.3496 30.8105 34.073 30.8063 31.9671 27.6688L33.8891 26.2063C33.5318 25.5528 33.241 25.0251 32.8821 24.3455C34.8857 22.8766 36.82 24.4021 38.5677 24.2643C38.8403 25.6193 39.0765 26.7674 39.3308 28.019L39.3316 28.032ZM168.747 15.8104C168.797 15.4918 168.835 15.1742 168.874 14.8565L172.05 15.4582C170.522 17.2305 169.649 16.1981 168.747 15.8104ZM5.15181 53.1567L1.723 51.5131C3.78876 51.2191 3.78876 51.2191 5.15181 53.1567ZM20.537 67.4783C20.2104 67.8552 19.8361 68.1763 19.426 68.4311C19.3211 68.4393 18.7641 67.7754 18.8158 67.6664C19.0843 67.2239 19.3965 66.8167 19.7465 66.4525L20.537 67.4783ZM32.5357 70.9633L29.9973 70.2588C30.6094 69.7518 30.9119 69.3477 31.2806 69.2531C32.1005 69.0705 32.1046 69.1357 32.5357 70.9633V70.9633ZM6.31421 45.016L6.20967 45.5879L4.75947 45.2434L4.86647 44.7106L6.31421 45.016ZM12.3895 65.0924C12.0473 65.2373 11.7583 65.483 11.5886 65.3915C11.419 65.3 11.3144 64.9411 11.1815 64.6894C11.3955 64.5546 11.6479 64.2856 11.7918 64.3398C11.9357 64.394 12.131 64.7063 12.3895 65.0924ZM8.21087 61.5808C7.95184 61.5248 7.69663 61.4485 7.44713 61.3526C7.52639 61.1235 7.61747 60.7099 7.67655 60.7184C7.93821 60.7749 8.19215 60.8695 8.43192 60.9996C8.27274 61.2613 8.21087 61.5808 8.21087 61.5808Z" fill="#FFE2B6"/>
<path fill-rule="evenodd" clip-rule="evenodd" d="M102.378 28.6333C100.292 28.5852 98.1995 28.5838 96.1087 28.6101C95.915 28.6253 95.7222 28.964 95.4473 29.2351L97.4108 29.5054C97.4177 29.6157 97.4247 29.7261 97.431 29.8272L93.1478 30.8949L92.5561 29.3799C91.2701 31.0614 89.5871 30.9169 87.3851 30.8779L89.2629 32.1067C86.0476 32.3602 83.1031 32.7402 80.1651 32.7593C79.5213 32.7266 78.8765 32.8645 78.3022 33.1578C77.7279 33.451 77.2467 33.888 76.9119 34.4203C78.6538 34.7265 80.2834 34.9492 81.8351 35.3258C82.2088 35.4667 82.6146 35.5194 83.0186 35.4795C83.4225 35.4396 83.8127 35.3083 84.1565 35.0966C84.7836 34.6868 85.535 34.4915 86.2843 34.5435C87.0337 34.5955 87.7355 34.8916 88.2718 35.382L83.9807 38.4925C83.7672 38.4298 83.5625 38.3436 83.3709 38.2356C81.6994 37.0368 81.6533 37.0774 80.1489 38.5358C79.6856 38.9446 79.104 39.21 78.4837 39.2955C77.2829 39.3901 76.0762 39.3929 74.8719 39.4324C72.4767 39.3971 70.078 39.5183 67.6927 39.7951C65.9983 40.17 64.2442 40.1627 62.572 39.7737C62.4264 39.7253 62.2711 39.7067 62.116 39.7189C61.9609 39.7311 61.8095 39.774 61.6714 39.8447C60.2637 41.1385 58.4937 40.6959 57.056 40.8924C54.2243 38.8887 51.1467 38.8541 48.0244 39.1926L47.7445 39.6952L49.6306 40.5907C48.2734 41.217 46.8625 41.7272 45.415 42.115C44.1115 42.2117 42.8041 42.1753 41.5152 42.0067C41.9794 42.5196 42.6043 42.8775 43.3022 43.0301C45.5942 43.7272 45.5942 43.7272 45.6859 46.1133L47.6228 45.9606C47.4051 45.2847 47.2257 44.7537 46.9858 44.0333C49.3615 44.0493 48.372 45.957 49.1204 47.0253C51.7382 48.1033 55.0547 47.1396 57.966 48.3978L56.8581 49.8157C58.1838 49.8498 59.2065 49.8616 60.2315 49.9102C60.9405 49.8655 61.65 49.9249 62.335 50.0862C62.7168 50.2648 63.1368 50.3612 63.5658 50.3689C63.9949 50.3765 64.4227 50.2952 64.8196 50.1306C66.273 49.5632 67.3413 50.3014 67.6178 51.7581C67.0716 52.5126 64.8453 51.4684 65.3764 53.4132C66.3567 53.4847 67.3252 53.6466 68.2682 53.8968C69.7528 54.445 71.1043 55.1979 72.8514 54.9677C73.7008 54.8546 74.1121 55.5152 73.4954 56.3862C70.7944 56.4605 68.1068 57.3654 65.398 56.387C64.6412 56.114 63.6831 56.3558 63.3477 57.6759L67.6756 58.0924L66.9597 59.5534C65.2826 59.0388 63.7401 58.8093 62.3351 60.454C62.7346 60.6691 63.1719 60.816 63.6276 60.888C64.2323 60.7946 64.832 60.6702 65.4241 60.5154C65.6275 60.4993 65.8498 60.6297 66.1974 60.7409L64.6697 61.6745C64.8817 62.2584 65.0593 62.7618 65.2935 63.3902L61.2104 63.4626C62.7143 64.4714 63.7697 65.4693 62.932 67.6237C64.7566 66.7683 66.1046 66.8469 67.2786 67.8724C70.1926 67.7813 72.866 69.28 75.9307 68.9552C77.1607 68.8582 78.1839 68.8792 78.8557 67.8006C79.2 68.0137 79.4867 68.0835 79.5854 68.2605C80.8863 70.3756 82.9818 70.423 85.2497 70.2719C87.0125 70.1183 88.783 70.1273 90.5361 70.2987C92.2033 70.4999 93.8063 70.9187 95.4892 70.287C95.6019 70.2475 95.7213 70.2296 95.8403 70.2345C95.9592 70.2394 96.0754 70.267 96.182 70.3156C97.7119 71.119 99.19 70.79 100.729 70.1973C101.123 69.9702 101.587 69.8856 102.034 69.9592C102.481 70.0328 102.881 70.2597 103.158 70.5972C100.047 72.0141 96.6979 72.8735 93.2836 73.1314C96.0186 74.0616 99.4872 72.4206 102.149 74.8165L101.091 75.6299C107.354 75.4041 113.156 75.2701 118.948 74.9798C126.845 74.5882 134.731 74.0127 142.631 73.6487C146.085 73.4872 149.552 73.6759 153.017 73.6708C157.883 73.6752 162.86 73.5785 167.769 73.6351C173.885 73.6981 179.998 73.8814 186.12 74.0364C188.937 74.1007 191.758 74.2295 194.578 74.192C198.468 74.144 202.347 73.9306 206.236 73.8551C214.138 73.6941 222.031 73.5338 229.929 73.4656C236.289 73.4306 242.65 73.0495 248.982 72.3239C254.182 71.7913 259.347 70.921 264.438 69.7193C265.55 69.4896 266.677 69.3512 267.809 69.3057C270.046 69.1293 272.293 68.9522 274.533 68.831C275.337 68.726 276.146 68.6623 276.955 68.6401C279.942 68.6844 282.929 68.2774 285.803 67.4343C289.172 66.5311 291 63.4023 289.545 60.5324C288.86 59.0787 288.756 57.4266 289.252 55.8798C290.096 52.4405 291.225 49.0342 290.688 45.445C290.642 44.8204 290.707 44.1903 290.882 43.5816C291.477 40.661 291.64 37.8298 290.182 35.071C289.805 34.1616 289.666 33.1742 289.777 32.1922C289.884 31.5788 289.765 30.9538 289.438 30.4247C289.112 29.8957 288.599 29.4955 287.988 29.2931C287.26 29.0086 286.49 28.8291 285.726 28.6028C284.8 28.3854 283.891 28.1081 283.007 27.773C280.492 26.6222 277.733 26.5533 275.033 26.3226C273.379 26.185 271.662 26.5883 270.023 26.3572C267.631 26.0571 265.207 26.0065 262.792 26.2065C260.855 26.3592 258.989 26.4047 257.084 26.4532C256.458 26.5536 255.819 26.5023 255.226 26.304C254.457 25.8928 253.595 25.657 252.707 25.6149C251.818 25.5728 250.927 25.7255 250.101 26.0612C249.321 26.2776 248.529 26.4481 247.729 26.5716C244.027 27.2885 240.271 26.9841 236.524 27.455C233.279 28.0225 229.96 27.9475 226.778 27.2347C226.23 27.1953 225.677 27.2705 225.157 27.4549C224.629 27.6497 224.076 27.7741 223.516 27.8245C220.575 27.4927 217.635 27.1608 214.684 26.6727C213.572 26.4831 212.557 26.1196 211.401 26.6174C210.861 26.7433 210.305 26.7872 209.754 26.7472L205.987 27.0442L205.056 26.0179C204.369 26.2292 203.523 26.2405 203.149 26.6396C201.825 28.1854 199.866 27.8224 198.245 28.366C197.836 28.5184 197.125 28.1864 196.886 28.4085C195.625 29.5705 194.283 29.1127 193.012 28.7139C192.401 28.4511 191.729 28.3349 191.054 28.3753C190.378 28.4157 189.719 28.6115 189.133 28.9458C188.929 29.062 188.7 29.1321 188.465 29.1506C188.23 29.1692 187.994 29.1357 187.778 29.0527C187.414 28.8503 187.31 28.2764 187.044 27.7614C186.487 28.2993 185.775 28.6676 185.002 28.8176C184.23 28.9676 183.433 28.8922 182.717 28.6015C181.804 28.4161 180.861 28.3718 179.926 28.4704C175.697 28.3972 171.461 28.3615 167.261 28.2768C166.161 28.262 165.068 28.0617 163.966 28.0284C160.825 27.9249 157.689 27.8765 154.548 27.7637C153.916 27.6959 153.291 27.5845 152.678 27.4307C153.008 26.1849 153.753 26.4219 154.563 26.4596C156.139 26.6125 157.73 26.6812 159.327 26.6847C160.3 26.6911 161.255 26.3941 162.154 26.4618C164.106 26.5481 165.972 26.8168 167.887 26.9338C169.087 27.0298 170.295 27.0427 171.5 26.9724C172.256 26.9128 173.166 26.8411 173.195 25.6006C172.944 25.4469 172.663 25.3405 172.368 25.2869C170.275 25.2764 168.181 25.2658 166.084 25.3388C164.142 25.4088 162.215 25.7178 160.266 25.6774C155.997 25.5796 151.757 25.4888 147.562 26.568C147.326 26.6148 147.085 26.6338 146.846 26.6245C144.272 26.7073 141.704 26.7342 139.133 26.8629C133.089 27.1639 127.047 27.5108 121.015 27.8478C120.453 27.8053 119.886 27.9009 119.368 28.1255C118.66 28.634 118.081 28.3933 117.358 28.3486C114.653 28.2107 111.946 28.1931 109.179 28.1341C108.946 28.1524 108.617 28.1784 108.486 28.2626C107.384 29.4676 106.104 29.2266 104.739 28.8814C103.968 28.7046 103.175 28.6213 102.378 28.6333V28.6333ZM260.931 68.739L261.025 69.3045L258.139 69.8278C258.403 69.3658 258.827 69.0034 259.338 68.8043C259.849 68.6051 260.413 68.582 260.931 68.739V68.739ZM187.363 68.4218C187.375 68.6057 187.386 68.7896 187.398 68.9735L184.493 69.2026C185.398 68.2811 186.381 68.4346 187.363 68.4218V68.4218ZM142.45 70.3179C143.396 71.4261 144.668 71.0671 145.847 71.2513C146.244 71.3392 146.63 71.4635 147 71.6225C146.728 71.9396 146.472 72.5142 146.181 72.5371C144.147 72.6975 142.094 73.3122 139.845 72.5376C140.097 71.9048 140.383 71.2839 140.702 70.6775C141.134 69.9689 141.914 69.6856 142.45 70.3179ZM128.019 72.9803C129.094 72.1193 130.282 72.2936 131.934 72.3944C130.382 73.7272 129.167 73.2871 128 72.9818L128.019 72.9803ZM118.112 71.9132C118.677 72.072 119.166 72.4215 119.73 72.5711C120.199 72.6571 120.678 72.6907 121.158 72.6711C122.133 72.7051 123.256 73.0785 123.884 72.6872C125.034 71.9496 125.938 72.3958 126.959 72.5279L127.11 73.0704C126.085 73.3997 125.037 73.6553 123.975 73.835C121.346 74.1162 118.707 74.2503 116.063 74.4588C114.867 74.6132 113.664 74.708 112.461 74.7428C112.005 74.7787 111.582 74.2391 111.199 73.7149C113.433 73.8067 114.86 72.5023 116.107 71.5908C116.777 71.6628 117.44 71.7741 118.094 71.9239L118.112 71.9132ZM115.843 70.3364C116.831 69.3345 116.831 69.3345 118.351 69.2146C117.661 70.4611 116.751 70.2371 115.824 70.3472L115.843 70.3364ZM196.065 62.8661C196.806 63.2384 197.632 63.4386 198.478 63.4505C199.324 63.4625 200.166 63.2859 200.936 62.9349C202.107 62.5284 202.703 62.7124 203.105 63.6879C201.366 64.0843 199.608 64.3834 197.837 64.5837C196.51 64.5865 195.191 64.4265 193.914 64.1075C193.783 64.0628 193.67 63.9811 193.589 63.873C193.509 63.7649 193.465 63.6355 193.464 63.5018C193.463 63.368 193.505 63.2362 193.583 63.1235C193.662 63.0108 193.774 62.9224 193.905 62.8701C194.605 62.6491 195.358 62.6514 196.046 62.8768L196.065 62.8661ZM191.598 63.3292C191.41 63.5986 191.157 63.8216 190.86 63.9787C190.86 63.9787 190.433 63.689 190.465 63.5848C190.601 63.2161 190.778 62.8615 190.992 62.5268C191.32 62.9353 191.64 63.2334 191.579 63.3399L191.598 63.3292ZM188.883 63.0349C188.99 63.0265 189.021 63.5231 189.213 64.2564C187.53 63.7977 186.076 64.208 185.02 63.3488C185.065 63.1419 185.1 62.9266 185.136 62.7205C186.369 62.8266 187.619 62.8944 188.864 63.0457L188.883 63.0349ZM144.544 65.2277L141.53 65.2805C143.001 64.379 143.001 64.379 144.525 65.2384L144.544 65.2277ZM105.143 65.7836C104.014 66.5656 103.413 66.7516 102.424 65.5729L105.143 65.7836ZM70.1243 64.2199C69.5372 64.4787 68.6812 64.1765 67.3713 64.0858L70.4181 62.2377C70.5881 62.3572 70.7205 62.5183 70.8016 62.7045C70.8828 62.8907 70.9098 63.0953 70.8798 63.2972C70.8499 63.4991 70.7641 63.6909 70.6313 63.8531C70.4986 64.0153 70.3235 64.1419 70.1243 64.2199V64.2199ZM80.488 58.7826L80.1527 59.6407L79.7937 59.5026C79.9324 59.233 80.0609 58.9549 80.1894 58.6768L80.488 58.7826ZM76.6143 60.3262C76.246 60.6602 75.9383 61.1834 75.6084 61.2002C74.1761 61.3151 72.7387 61.3047 71.3144 61.1691C69.6564 60.9579 70.0241 59.3765 68.9952 58.1825C72.1263 58.1389 74.5603 58.3074 76.5858 60.3377L76.6143 60.3262ZM177.588 43.7628C174.829 44.6179 172.072 43.7911 169.305 43.8984C172.053 42.8778 174.81 43.2241 177.56 43.7743L177.588 43.7628ZM117.899 35.2547C117.892 35.1352 117.972 35.018 118.003 34.8954L118.925 35.1554C118.93 35.2382 118.877 35.3347 118.844 35.4205L117.899 35.2547ZM183.44 30.7992L182.878 31.9338L182.479 31.7805L182.991 30.6221L183.44 30.7992ZM130.54 33.2232C131.058 33.4231 131.629 33.4744 132.185 33.3708C132.679 33.3094 133.176 33.4062 133.599 33.6457C134.021 33.8853 134.344 34.2539 134.516 34.6932L137.256 33.2297L135.383 36.399C134.264 36.1083 133.085 35.7762 131.89 35.5008C131.051 35.2991 130.25 35.1034 129.539 36.0189C129.031 36.5581 128.384 36.963 127.666 37.1922C127.324 37.3208 126.514 37.1444 126.432 36.9199C125.813 35.2685 124.394 35.4635 123.046 35.5328C122.53 35.5016 122.021 35.4115 121.53 35.2642C121.519 35.0895 121.576 34.9094 121.594 34.7325C122.381 34.7213 123.167 34.6593 123.947 34.5469C125.182 34.2678 126.402 33.9248 127.6 33.5197C128.565 33.2311 129.443 32.6444 130.54 33.2232ZM131.752 30.3556C130.587 29.7913 130.951 28.9218 131.169 28.2115C131.227 28.0407 131.956 28.0386 132.727 27.9039L131.752 30.3556ZM68.0233 35.7679C64.6941 37.7676 63.6338 37.7772 61.9095 35.5846L63.5174 34.5338C63.2259 34.0763 62.9885 33.7069 62.6958 33.231C64.3715 32.1748 65.966 33.2319 67.4186 33.1174C67.6343 34.0706 67.8214 34.8782 68.0227 35.7587L68.0233 35.7679ZM175.606 25.8633C175.65 25.638 175.685 25.4135 175.719 25.189L178.352 25.5821C177.069 26.8475 176.353 26.1278 175.606 25.8633ZM39.4365 53.832L36.6017 52.7064C38.3198 52.4785 38.3198 52.4785 39.4365 53.832ZM52.1015 63.7834C51.8273 64.0526 51.5139 64.2828 51.1712 64.4666C51.0841 64.4735 50.6267 64.0106 50.6705 63.9332C50.897 63.6183 51.1595 63.328 51.4531 63.0676L52.1015 63.7834ZM62.0396 66.1232L59.9369 65.6514C60.4493 65.2875 60.7037 64.9995 61.0107 64.9291C61.6931 64.7921 61.696 64.8381 62.0396 66.1232V66.1232ZM40.4663 48.0772L40.375 48.4817L39.1732 48.253L39.2663 47.8761L40.4663 48.0772ZM45.3534 62.1809C45.0681 62.2865 44.8262 62.4627 44.6859 62.3998C44.5457 62.3369 44.4618 62.0848 44.3533 61.9086C44.5321 61.8113 44.7439 61.6191 44.863 61.6559C44.9821 61.6927 45.1418 61.9111 45.3534 62.1809ZM41.9106 59.7448C41.696 59.7079 41.4846 59.6567 41.2781 59.5914C41.3458 59.429 41.4247 59.1363 41.4737 59.1417C41.6906 59.179 41.9007 59.2432 42.0988 59.3327C41.9646 59.5188 41.9106 59.7448 41.9106 59.7448Z" fill="#FFB31F"/>
<path d="M143.755 65.3146C144.301 61.9966 145.351 58.8046 145.351 58.8046C146.737 56.4106 150.013 52.2526 151.525 51.1186C151.777 50.9086 152.071 50.8246 152.491 50.6146C152.869 51.0346 152.911 51.8326 152.869 52.0006C152.491 55.2346 150.895 57.2926 148.837 59.3086C148.543 59.6866 147.871 60.2746 147.787 60.7366C147.535 60.9466 147.703 61.1566 147.871 61.3246C148.837 62.0806 150.139 61.9966 152.239 60.1066C153.919 58.6786 155.137 56.8306 155.473 55.2346C155.767 54.6046 155.977 52.0426 155.935 51.3286C155.809 50.2786 154.801 49.3966 153.919 49.3546C151.693 49.2286 149.887 49.9426 148.543 51.7906C147.871 52.7566 147.241 53.7646 146.611 54.7306C146.485 54.8986 146.317 55.0666 146.023 55.5286C146.107 54.1006 146.275 53.0086 146.191 51.9586C145.939 49.0606 145.645 48.9346 143.041 48.9346C142.747 48.9346 142.453 48.9346 142.159 49.0186C141.529 49.1446 141.235 49.7746 141.487 50.4046C141.613 50.6146 141.655 50.8666 141.655 51.0766L141.487 53.9746C141.319 56.4526 140.899 57.7126 140.689 59.3506C140.647 59.7286 140.605 61.0306 140.563 61.2826C140.227 63.3406 139.765 64.9366 139.681 65.8186C139.555 67.6666 139.429 69.3046 141.067 70.3546C142.621 71.3626 144.217 70.7746 145.225 70.2706C145.519 70.1026 145.351 69.0106 145.057 69.1366C144.049 69.4306 143.377 67.7926 143.755 65.3146ZM167.529 61.7866C167.487 61.5346 167.445 61.3246 167.445 61.1566C167.529 59.5606 167.781 57.9646 168.285 56.4526C168.831 54.7726 168.621 54.4366 166.857 54.3106C166.647 54.2686 166.437 54.3106 166.227 54.2686C165.723 54.1426 165.345 54.3526 165.051 54.7726C164.337 55.7386 163.581 56.7046 162.909 57.7546C162.153 58.9726 161.481 60.2746 160.725 61.5766C160.599 61.7866 160.389 61.9546 160.011 62.2906L160.011 61.0726C160.095 59.6026 160.431 58.2586 160.851 56.8726C161.271 55.4866 161.775 54.1846 162.573 53.0086C162.993 52.4206 163.413 52.1266 164.127 52.1686C164.631 52.2106 165.135 52.0426 165.849 51.9586C165.597 51.5386 165.471 51.2866 165.303 51.2026C164.715 50.9926 164.127 50.7826 163.497 50.7406C162.573 50.6146 161.649 50.7406 160.725 50.6146C160.137 50.5726 159.759 50.7826 159.465 51.2446C159.129 51.7486 158.835 52.3366 158.583 52.8826C157.869 54.3946 157.071 55.7806 156.441 58.4266C156.105 60.2326 156.399 63.1726 156.525 63.3826C157.155 64.4326 158.163 64.8526 159.255 64.9366C160.641 65.0626 161.523 65.0206 162.321 63.3406C162.657 62.6266 163.077 61.9126 163.581 61.0726C163.917 61.9546 164.085 62.6266 164.421 63.2566C165.177 64.8946 167.277 65.1466 168.411 63.7606C169.335 62.2906 170.427 60.9466 171.855 57.5446C170.175 58.6366 168.495 60.4006 167.529 61.7866ZM181.423 46.8766C180.961 47.0026 180.541 47.3386 180.163 47.6326C178.735 48.8086 177.979 50.4886 177.013 52.0426L175.291 54.8566C174.829 51.7486 175.501 48.8086 176.341 45.9106C175.837 45.4066 175.459 45.2386 174.535 45.0706C173.401 44.9026 173.149 45.0706 172.897 46.1206C172.519 47.8846 171.973 49.6486 171.931 51.4546C171.511 54.1006 171.427 55.1506 171.091 57.5866L170.923 59.0566C170.797 59.9386 170.587 60.8206 170.629 61.7026C170.713 63.9286 173.023 64.9786 174.955 63.7606C174.493 63.1726 174.535 62.5006 174.787 61.8706C175.333 60.3586 175.921 58.8886 176.341 57.3346C177.139 54.5626 178.399 52.0006 179.953 49.6066C180.163 49.2286 180.415 48.8506 181.045 48.6826L180.667 49.9006C180.205 51.2446 179.701 52.5886 179.281 53.9326C178.819 55.4026 179.155 55.9486 180.583 56.4106C180.877 56.5366 181.213 56.5366 181.549 56.5366L181.549 55.6546C181.717 55.1926 182.347 54.1426 182.515 53.7226C182.977 52.3786 183.481 51.0346 183.985 49.7326C184.321 48.9766 184.321 48.1786 183.817 47.5906C183.229 46.8346 182.347 46.5826 181.423 46.8766ZM194.272 41.0386C193.978 40.7866 192.928 40.1566 192.928 40.9546C191.626 41.0386 190.366 41.3746 189.064 41.5006L189.148 40.8286C189.484 38.2246 189.862 35.6206 190.24 33.0166C190.282 32.7646 190.282 32.5126 190.24 32.2606C190.198 31.7566 189.946 31.3366 189.442 31.2106C188.434 30.9586 187.426 30.7906 186.292 31.0426C186.04 31.8406 185.746 32.6386 185.536 33.4366C185.41 33.8146 185.452 34.2346 185.368 34.6546C185.326 34.8646 185.284 35.0746 185.2 35.2426C184.654 36.0406 184.444 36.8806 184.612 37.8466C184.654 38.0146 184.612 38.2246 184.57 38.3926C184.444 38.7286 184.318 40.3666 184.192 42.1306C184.066 42.1306 183.982 42.1726 183.856 42.2146C182.974 42.3826 182.092 42.6346 181.168 42.8446C180.58 42.9286 178.942 42.7606 178.48 43.1806C177.85 43.7686 179.152 44.1886 179.572 44.2306C180.958 44.3146 182.428 44.2306 183.856 44.2306L184.024 44.2306C183.94 44.9866 183.898 45.7006 183.772 46.2466C183.394 49.0186 183.394 51.9586 183.31 53.7646C183.31 55.0666 183.394 56.4526 183.268 57.7546C183.1 59.0986 183.394 60.2746 183.898 61.4506C184.066 61.7866 184.57 63.5506 184.864 63.7606C186.418 64.7266 188.476 62.6686 189.316 61.0306C190.408 59.6026 190.702 57.3766 190.702 57.3766C190.03 58.5946 188.686 59.4766 187.468 60.6106C187.3 60.9046 187.006 61.1146 186.67 61.4506C186.124 60.3166 185.872 59.3086 185.914 58.2586C185.998 57.1246 186.25 55.9486 186.418 54.8146C186.46 54.6046 186.46 54.3946 186.376 54.1846C186.082 53.2606 186.964 49.6486 187.468 47.6326C187.846 46.3726 188.224 45.0706 188.56 43.8106C188.602 43.7686 188.644 43.7686 188.686 43.7686C190.366 43.4326 192.34 43.2646 193.852 42.3826C194.482 42.0046 195.028 41.6266 194.272 41.0386ZM193.063 61.4926C192.853 60.0226 193.315 56.9566 193.231 55.4866C193.189 53.9746 193.063 52.4626 193.819 51.1186C192.979 50.4466 192.181 50.6986 191.383 50.7826C190.753 50.8666 190.753 51.4966 190.459 51.8746C189.871 53.9326 189.871 54.5206 189.955 56.1586C190.123 56.6206 189.955 58.0066 189.955 58.1326C190.039 58.8886 189.997 60.1906 190.081 60.9466C190.165 61.8286 190.459 62.7946 191.299 63.0046C191.635 63.1726 192.727 63.2566 193.105 63.2566C193.483 63.2146 195.667 59.4766 196.465 57.5446C195.415 58.0486 194.155 60.0646 193.063 61.4926ZM193.441 48.1786C193.609 47.5066 193.693 46.8346 193.945 46.2046C194.449 44.9026 194.953 43.5586 195.541 42.2986C195.919 40.9126 194.995 39.1906 193.693 39.4006C193.357 39.4426 192.895 39.7786 192.769 40.0726C191.887 42.2146 191.089 44.3986 191.341 46.7506C191.467 47.9686 192.265 48.5146 193.441 48.1786ZM206.033 47.9686C205.277 47.7586 204.647 47.4646 204.059 47.0866C203.849 46.9606 203.555 46.8766 203.261 46.8346C202.757 46.7506 202.253 46.7506 201.791 46.6666C200.867 46.4986 200.111 46.6666 199.565 47.2546C199.313 47.5486 198.977 47.8426 198.767 48.1786C198.389 48.7666 198.011 49.3966 197.717 50.0266C197.003 51.7066 196.121 53.3866 195.659 55.1086C195.029 57.2086 195.197 58.0906 195.323 59.2666C195.407 59.6446 195.449 59.8966 195.533 60.1066C196.205 61.7866 197.927 63.2566 199.817 63.7606C201.119 64.0966 202.001 64.1806 202.967 63.5086C204.605 62.3326 205.907 61.4506 206.789 59.9806C207.335 59.0146 207.587 57.4186 207.587 57.4186C206.705 58.3426 204.689 59.6446 202.883 61.2406C202.421 61.6186 201.497 62.2486 201.077 62.5846C200.069 61.9966 199.229 60.6946 199.229 59.7286C199.229 59.0986 199.271 58.4266 199.607 57.8806C200.111 57.0826 200.867 56.3686 201.581 55.6966C203.597 53.8906 205.235 51.9586 206.453 49.8166C206.621 49.5646 206.705 49.3126 206.789 49.0186C206.915 48.5566 206.621 48.1366 206.033 47.9686ZM200.405 53.5126C200.321 53.3866 200.195 53.2606 200.195 53.1766C200.531 51.6226 201.245 50.1526 202.463 48.8506C203.009 48.2626 203.093 48.2626 204.185 48.5986C203.681 49.8166 202.337 51.5806 200.405 53.5126ZM216.644 60.3166C217.022 57.8806 216.686 56.0746 216.35 54.8986C215.72 52.5466 214.082 51.1186 211.94 50.1946C211.142 49.8166 210.218 49.6486 209.42 50.1946C209.462 50.2366 209.462 50.2366 209.462 50.2786C208.328 53.2186 207.53 55.3606 207.026 56.9566C206.648 58.3006 206.564 59.0986 206.312 59.6446C207.866 57.9646 208.664 56.3686 209.462 54.9406C210.176 53.7226 210.638 52.6306 210.89 51.8746C211.1 52.0846 211.268 52.3786 211.436 52.6306C212.192 54.0586 212.696 55.6966 212.696 57.3346C212.738 58.2586 212.864 59.2666 212.696 60.1906C211.268 60.3586 210.218 59.8126 209.084 60.3166C207.866 60.8206 207.236 62.2486 207.362 63.6346C207.53 66.0706 208.832 66.8686 212.066 66.3226C214.67 65.9026 215.678 64.4746 216.518 62.4166C218.114 61.9966 220.424 60.4426 220.424 57.5446C218.786 59.1406 217.946 60.1066 216.644 60.3166ZM209.756 65.2306C208.79 65.1466 208.076 63.5926 208.916 62.0806C209.168 61.5766 209.462 61.3666 210.008 61.4506C210.638 61.5766 211.898 61.6606 212.738 61.8286C212.654 64.2226 211.1 65.4826 209.756 65.2306Z" fill="white"/>
</svg>
